<svg class="img-fluid" xmlns="http://www.w3.org/2000/svg" style="transform:matrix(1.44804,0,0,1.44804,0,0);transform-origin:50% 50%0;cursor:move;max-height:none;transition:none" width="2048" height="2048" viewBox="0 0 20480 20480"><path d="M3060 10540V5340h1446c1315 0 1446 1 1440 16-3 9-6 346-6 750v734H4630v3689c0 3355 1 3689 16 3695 9 3 303 6 655 6h639v393c0 215 3 555 7 755l6 362H3060zm11420 4445v-755h634c349 0 645-4 658-9l23-9-1-3674c0-2021-4-3680-8-3687-6-9-161-11-644-11h-649c-10 0-13-157-13-750v-750h2880v10400h-2880zm-4430-536c-365-33-725-105-1050-210-799-259-1519-800-2025-1520-180-256-357-593-462-879-127-348-216-752-252-1151-53-568 13-1181 183-1724 153-486 374-908 680-1295 181-229 503-535 786-747 209-157 574-355 861-467 592-231 1088-316 1769-303 654 12 1197 129 1765 380 252 111 488 251 745 440 166 123 426 357 531 478l51 59-35 43c-19 23-113 123-208 223-96 99-255 268-354 374-99 107-227 244-285 305s-145 156-194 213c-48 56-90 102-92 102s-82-78-176-173c-263-264-461-411-748-556-377-191-678-261-1115-261-396 0-740 79-1070 247-253 128-439 265-626 461-167 176-263 306-374 510-146 270-236 540-287 865-26 167-36 543-19 714 14 136 59 370 97 499 64 222 228 576 336 725 242 334 511 573 838 746 369 195 749 282 1186 271 473-13 864-126 1242-361 275-171 480-352 721-637 39-46 71-88 71-92 0-30 60 19 254 210 121 119 379 370 571 557 193 187 351 347 353 356 8 40-383 465-598 650-366 316-824 577-1292 738-287 98-627 168-1003 206-154 16-615 18-775 4" style="transform:none" fill="#152e80"/></svg>