<svg version="1.0" xmlns="http://www.w3.org/2000/svg" width="1024" height="1024" viewBox="0 0 1024 1024">
  <g fill="#203376">
    <path d="M508 1023.55c0-.25-1.75-.6-3.85-.8-4.45-.4-12.65-2.7-15.5-4.35-1.05-.6-5.05-2.95-8.9-5.2s-13.95-8.1-22.5-13.05c-8.5-4.95-20.1-11.7-25.75-15-8.9-5.2-24.15-14.05-55.75-32.4-4.4-2.55-16-9.3-25.75-15.05-9.75-5.7-22.45-13.15-28.25-16.45-15.9-9.15-52.3-30.35-77.25-44.9-12.25-7.15-24.4-14.25-27-15.75-11.1-6.4-24.4-14.1-41.75-24.05-10.15-5.9-21.4-12.4-25-14.5-10.4-6.2-15.6-9.2-22.5-13.15-3.6-2.05-10.1-5.85-14.5-8.4s-12.95-7.5-19-11c-27.5-15.85-29-16.8-29.15-18.35-.1-1.5.15-1.7 13.1-8.95 6.95-3.9 20-11.45 30.55-17.7 10.25-6.1 21.8-12.8 23.6-13.7.65-.3 1.15-.7 1.15-.9 0-.25.8-.4 1.75-.4h1.75V743h67.65c37.15 0 68.8-.15 70.25-.3l2.6-.35V687h3.35l.4 9.75c.2 5.35.2 15.85 0 23.4-.2 7.5-.2 15.85 0 18.5l.35 4.8 5.05 3.2c2.8 1.8 7.6 4.65 10.6 6.35 5.5 3.15 13.3 7.7 27.75 16.25 4.25 2.55 11.35 6.7 15.75 9.25s12.4 7.25 17.75 10.4 11.9 7 14.5 8.5c2.6 1.55 8 4.7 12 7 9.25 5.45 13.5 7.9 22.5 13.1 4 2.3 11.85 6.9 17.5 10.25S439 835.7 443 838c8.4 4.85 16.95 9.85 30.25 17.75 5.25 3.1 12.45 7.25 16 9.25 3.6 2 9.65 5.55 13.45 7.85 3.8 2.25 7.05 4.15 7.15 4.15.3 0-.05-144.4-.35-144.7-.15-.15-3.2-.05-6.75.25-13.2 1-35.75 1.1-46.75.25-22.6-1.85-43.35-5.95-62.75-12.4-10.1-3.35-29.75-12.1-29.75-13.25 0-.35-.5-.65-1.05-.65-1.25 0-6.95-2.75-7.7-3.7-.3-.35-1-.8-1.65-1-.6-.2-1.1-.6-1.1-.85s-.35-.45-.75-.45c-1.15 0-15.4-9.1-18.45-11.75-.75-.7-1.6-1.25-1.85-1.25-.7 0-1.45-1.8-1.45-3.45 0-1.4.15-1.55 1.55-1.55.85 0 1.85.3 2.2.65.4.3 1 .85 1.35 1.15 1.2.95 15.1 10.05 17.65 11.5 1.4.75 2.6 1.6 2.65 1.8.1.2.5.4.85.4.4 0 1 .3 1.35.65.6.55 4.8 2.95 7.25 4.1.65.25 1.15.8 1.15 1.15 0 .3.4.6.95.6.5 0 3.25 1.1 6.1 2.45 11.85 5.6 29.8 12.05 41.7 15 26.95 6.7 58.15 9.25 83.75 6.8 5.1-.45 11.4-.9 14-1 2.75-.1 6.45-.6 8.75-1.2 2.2-.55 4.4-1.05 4.9-1.05.45 0 .85-.2.85-.5 0-.25.8-.5 1.8-.5 2.05 0 6.25-.95 6.9-1.55.3-.25 1.1-.45 1.8-.45 1.6 0 11.5-2.55 16.35-4.2 6.45-2.2 31-13.8 37.55-17.75 13.7-8.3 25.9-17.4 33.1-24.8 2.05-2.1 4.7-4.55 5.9-5.4 1.15-.85 2.1-1.7 2.1-1.9 0-.25 1.85-2.4 4.1-4.8 4.65-5.05 7.75-8.45 9.05-10 .9-1.05.85-1.1-10.55-12.45-13.5-13.5-20.2-19.7-21.3-19.7-.45 0-.9-.55-1.1-1.25-.35-1.5-24-24.55-25.45-24.8-.55-.15-1.05-.7-1.15-1.3-.1-.55-.6-1.45-1.15-1.95-.95-.85-1.05-.8-3.2 1.6-1.2 1.35-2.2 2.95-2.25 3.6 0 1.65-3.45 5.1-5.05 5.1-.9 0-2.7 1.2-6 4.15-2.6 2.25-5.35 4.6-6.1 5.15-.75.6-1.35 1.6-1.35 2.2 0 1.45-1.35 2.45-3.25 2.5-1.95 0-5.15 2.15-5.35 3.6-.1.9-.6 1.25-2.15 1.55-1.1.25-3.35 1.1-5 1.85-4.4 2.05-13.9 6.2-18.5 8-2.2.9-4.2 1.75-4.5 1.95-.25.25-2.25.95-4.35 1.6-2.15.65-3.9 1.45-3.9 1.8 0 .7-.35.8-7 2.1-15.05 2.95-35.9 3.4-50 1.05-16.6-2.8-25.85-5.65-38.75-12.05-8.6-4.25-13.95-7.75-14.15-9.3-.15-.9-.5-1.15-1.7-1.15-1.35 0-3.7-1.4-6.5-3.95-.5-.45-1.7-1.45-2.75-2.3-3.45-2.75-12.65-12.2-12.65-12.95 0-.45-.3-.8-.65-.8-1.05 0-10.35-12.7-10.35-14.15 0-.4-.35-.85-.75-1.05-.4-.15-.75-.75-.75-1.3s-.2-1-.5-1c-1.9 0-12-23.95-12-28.5 0-1.4.1-1.5 1.95-1.5 1.7 0 1.95.15 2.2 1.45.5 2.4 3.8 10.45 7.4 18 1.9 3.95 3.45 7.6 3.45 8.1 0 .55.35.95.75.95s.75.35.75.75.2.75.5.75c.25 0 .6.55.8 1.25.15.7.5 1.25.75 1.25s.45.35.45.75.25.75.5.75c.3 0 .5.2.5.45 0 .3.55 1.1 1.25 1.85s1.25 1.65 1.25 1.95c0 .35.35.75.75.95.4.15.75.55.75.9s.8 1.3 1.75 2.05 1.75 1.55 1.75 1.8c0 .7 12.05 12.35 16.1 15.55 2.1 1.7 4.15 3.75 4.5 4.55.5 1.1.95 1.45 2.05 1.45.8 0 2.1.45 2.9 1.05 3.5 2.5 16.55 9.15 23.05 11.75 8.05 3.2 23.85 7.1 30.65 7.55 1.95.15 3.75.45 4.05.7.95.75 17.4.6 24.45-.25 7.7-.9 14.1-2 17.25-2.95l2.25-.65.15-119.7c.05-65.85 0-120.25-.15-120.9-.2-.85-.6-1.1-2-1.1-.9 0-1.85-.2-2-.5-.15-.25-1.25-.5-2.4-.5s-4-.35-6.35-.75c-7.05-1.25-24.95-1.55-33.25-.5-16.05 1.95-30.8 6.15-42.45 12.1-5.3 2.7-14.95 8.55-17.65 10.65-.7.55-2.05 1-2.95 1-1.6 0-1.7-.1-1.7-1.6 0-1.45.4-1.9 2.85-3.65 20.9-14.7 43.45-21.95 71.65-23.05 12.3-.5 34.3 1.65 35.75 3.45.3.35 2.6.9 5.2 1.2 3.3.45 4.85.85 5.15 1.4.25.4.7.75.95.75 1.15 0 17.5 7 23.45 10 1.8.9 5.8 3.3 8.9 5.3 3.1 2.05 6 3.7 6.4 3.7.35 0 .7.3.7.65s2.65 2.75 5.85 5.35c3.25 2.6 7.35 6.05 9.15 7.65s3.8 3.15 4.5 3.5 1.3 1.05 1.4 1.6c.25 1.25 1.55 2.75 2.8 3.2.7.3 2.1-.9 6.7-5.65 3.15-3.35 6.65-6.85 7.75-7.8 1.75-1.55 15.3-16.05 18.4-19.7.65-.75 4.15-4.45 7.75-8.25 3.55-3.75 7.9-8.35 9.65-10.3 1.7-1.9 4.5-4.95 6.2-6.75s3.95-4.15 5-5.3l1.85-2-7.1-7.05c-8.65-8.55-10.2-10-12.4-11.75-12.7-10-25.45-18.9-33.25-23.2-5.65-3.15-15.35-7.85-20.25-9.8-2.05-.85-4.8-2.05-6.1-2.7-6.85-3.45-24.5-9.05-33.9-10.75-2.85-.5-8.3-1.6-14.9-3.05-4.2-.9-5.25-.95-5.6-.4-.3.5-1.8.5-8.3-.15-4.4-.45-9.7-.95-11.8-1.1l-3.9-.35v-4l9.15.25c5 .2 9.6.45 10.2.65l1.1.3v-75.15l-.05-75.2 1.9-.15c1.25-.1 2.3.15 3.15.8.75.5 5.8 3.55 11.3 6.7 14.15 8.15 29.85 17.25 50.75 29.45 6.75 3.9 14 8.1 16.15 9.3s4.75 2.7 5.75 3.35c1 .6 5.35 3.1 9.6 5.55s8.3 4.8 9 5.25c.7.5 5.85 3.5 11.5 6.75 11.8 6.8 44.35 25.7 50.25 29.2 2.2 1.3 5.35 3.15 7 4.05 3.65 1.95 16.75 9.6 23.25 13.5 2.6 1.6 6.65 4 9 5.35s8.95 5.25 14.75 8.65l10.5 6.15 17.1.25 17.15.25V281h-34v5c0 4.65.05 5 1 5 .85 0 1 .35 1 2.5 0 1.8-.2 2.5-.7 2.5s-.75 1.6-1 7.15c-.35 7.3.05 37.35.45 37.8.15.15 14.55.2 32 .1 27.65-.1 31.75 0 31.75.65 0 .4.25.8.5.9.3.1.7 1.45.85 3.05.25 2.45.15 2.85-.55 2.85-.65 0-.8.55-.8 3 0 2.35.15 3 .75 3 .65 0 .75 4.1.75 33.7 0 31.7-.05 33.75-.85 33.95-.85.2-.85.25 0 .3.8.05.85 2.35.85 40.5s-.05 40.5-.85 40.7c-.85.2-.85.25 0 .3.8.05.85 4.65.85 89.55V683h-3.7c-2.05 0-3.8-.2-3.9-.45-.05-.2-12.6-.55-27.8-.7l-27.65-.3-.55 1.2c-.3.7-.85 1.25-1.25 1.25-.55 0-.65 3.25-.65 17.75 0 15.45.1 17.75.75 17.75s.75 1.6.75 11.5c0 11.15.05 11.5 1 11.5.8 0 1 .35 1 1.75 0 1.6-.1 1.75-1.5 1.75-.9 0-2.85.9-5.1 2.35-5.35 3.4-23.25 14.05-26.1 15.5-1.35.7-8.45 4.8-15.75 9.1-7.3 4.35-16.2 9.6-19.8 11.65-3.55 2.1-13.15 7.7-21.25 12.45-20.85 12.2-22.6 13.2-28.5 16.6-2.9 1.65-8.75 5.05-13 7.6-4.25 2.5-10.85 6.35-14.6 8.55-3.8 2.15-10.4 6.05-14.75 8.65-16.25 9.6-22.55 13.3-28.65 16.8-6.75 3.85-25.85 15.1-36 21.15-3.45 2.05-7.1 4.2-8.1 4.75l-1.9 1.05v69.75c0 38.4-.15 70.3-.3 70.95-.25.9-.65 1.1-2.5 1.1-1.2 0-2.2-.2-2.2-.45M720.85 580.5c52.8 0 53.25 0 53.5-1 .15-.55.45-1 .7-1s.45-1.1.45-2.5c0-1.35-.2-2.5-.5-2.5s-.5-2.75-.5-7.2c0-4.3.2-7.35.5-7.55.3-.15.5-1.4.5-2.8 0-1.35-.2-2.45-.5-2.45-.25 0-.5-.55-.5-1.25V551h-6.25c-5.2 0-6.25-.1-6.25-.75 0-.6-.9-.75-5-.75s-5 .15-5 .75c0 .65-1.8.75-13.25.75s-13.25-.1-13.25-.75c0-.55-.6-.75-2.3-.75-1.35 0-2.55.3-3 .75-.45.4-1.55.75-2.5.75-1.1 0-1.85-.3-2-.75-.25-.55-1.1-.75-3.15-.75-1.55 0-3.65-.15-4.65-.3-1.75-.3-1.9-.45-1.9-1.9 0-1.8 2.45-4.45 8-8.55 1.8-1.35 4.6-3.55 6.25-4.95s4.7-3.85 6.75-5.4 4.1-3.3 4.5-3.85c.4-.6 1-1.05 1.35-1.05s.9-.45 1.25-1 .85-1 1.1-1 .8-.35 1.25-.75 2.1-1.8 3.7-3.05c1.55-1.25 2.85-2.45 2.85-2.75 0-.25.3-.45.7-.45.35 0 4-3.3 8.05-7.35 9.1-9.1 9.75-9.8 9.75-10.55 0-.35.25-.6.5-.6.3 0 .5-.35.5-.75s.25-.75.5-.75c.3 0 .5-.35.5-.75s.5-1.25 1.1-1.85c1.8-1.8 5.25-8.25 6.35-11.85 2.75-9.1 3.1-20.85.8-29.35-2-7.65-2.9-9.75-5.95-14.2-2-2.85-2.85-3.75-3.9-4.15-.5-.2-.9-.75-.9-1.25 0-1.1-2.85-3.95-4.25-4.2-.5-.1-1.1-.65-1.25-1.25-.45-2.05-10.85-8.05-16.6-9.65-10.75-3-13.55-3.45-21.15-3.6-4.1-.1-9.4.1-11.75.45-4.25.6-13.6 3.15-16 4.35-.7.35-3.4 1.65-6 2.85s-6.2 3.3-8 4.6c-4.6 3.45-12.5 11.5-12.5 12.8 0 .6-.3 1.05-.75 1.05-.4 0-.75.45-.75 1s-.35 1-.75 1-.75.45-.75 1-.3 1-.7 1c-1 0-2.8 2.4-2.8 3.75 0 1.2 4.6 4.75 6.15 4.75.45 0 .85.3.85.65 0 .3 1.6 1.7 3.55 3.05 1.95 1.4 5.45 4.15 7.85 6.15s4.6 3.65 4.9 3.65.85-.55 1.2-1.25.95-1.25 1.35-1.25c.35 0 .65-.3.65-.65s1.05-1.65 2.4-2.85c1.3-1.2 4.15-3.9 6.4-5.95 7.1-6.7 12-8.55 23.05-8.55 7.1 0 11.1.85 14.05 2.95.85.55 1.85 1.05 2.3 1.05s.8.35.8.75c0 .45.4.95.9 1.1 1.4.55 1.95 1.35 2.25 3.15.75 4.6 1.55 6.95 2.45 7.15.8.2.9.8.9 4.45-.05 7.5-1.1 11.9-2.85 11.9-.25 0-.8.75-1.25 1.65-1.3 2.75-5.15 8.45-7.45 11.05-2.3 2.65-13.05 12.35-18.45 16.65-1.8 1.45-4.8 3.9-6.75 5.45-1.9 1.55-5.3 4.5-7.55 6.5-2.2 2.05-5.85 5.15-8.1 7-2.95 2.4-4.1 3.65-4.2 4.6-.1 1.1-.45 1.4-1.75 1.5-1.3.15-1.65.4-1.65 1.25 0 1.45-1.65 2.85-3.4 2.85-.75 0-1.9.5-2.6 1.15-.7.6-2.1 1.65-3.05 2.35-3 2.05-12.45 11.35-12.45 12.2 0 .45-.2.8-.5.8s-.5 2.65-.5 6.95c0 7.35-.2 8.55-1.3 8.55-.55 0-.7 1.15-.7 5.5 0 5.15.05 5.5 1 5.5.75 0 1 .35 1 1.2 0 1.05.3 1.25 1.9 1.45 1 .15 3.5.15 5.55.05s27.65-.2 56.9-.2M528.5 1019.8c0-1.05.25-1.3 1.25-1.3.7 0 1.25-.2 1.25-.5 0-.25.8-.5 1.75-.5 3.45 0 1.4 2.2-3.1 3.3-1 .25-1.15.1-1.15-1m9-4.25c0-1.45.15-1.55 1.75-1.55 1.4 0 1.75-.2 1.75-1s.35-1 1.75-1c1.1 0 1.75.25 1.75.65 0 .5-4.3 3.25-6.6 4.25-.25.1-.4-.5-.4-1.35m29.5-17c0-1.45.15-1.55 1.75-1.55 1.15 0 1.75.25 1.75.65 0 .6-.6 1.05-3.1 2.25-.25.1-.4-.5-.4-1.35m18-10.5c0-1.45.15-1.55 1.75-1.55 1.15 0 1.75.25 1.75.65 0 .6-.6 1.05-3.1 2.25-.25.1-.4-.5-.4-1.35m13-7.5c0-1.45.15-1.55 1.75-1.55 1.15 0 1.75.25 1.75.65 0 .6-.6 1.05-3.1 2.25-.25.1-.4-.5-.4-1.35m14.5-8.5c0-1.45.15-1.55 1.75-1.55 1.15 0 1.75.25 1.75.65 0 .6-.6 1.05-3.1 2.25-.25.1-.4-.5-.4-1.35m16.5-9.5c0-1.45.15-1.55 1.75-1.55 1.15 0 1.75.25 1.75.65 0 .6-.6 1.05-3.1 2.25-.25.1-.4-.5-.4-1.35m36-21c0-1.45.15-1.55 1.75-1.55 1.4 0 1.75-.2 1.75-1s.35-1 1.75-1c1.1 0 1.75.25 1.75.65 0 .5-4.3 3.25-6.6 4.25-.25.1-.4-.5-.4-1.35m21.5-12.5c0-1.45.15-1.55 1.75-1.55 1.15 0 1.75.25 1.75.65 0 .6-.6 1.05-3.1 2.25-.25.1-.4-.5-.4-1.35m15.5-9c0-1.45.15-1.55 1.75-1.55 1.15 0 1.75.25 1.75.65 0 .6-.6 1.05-3.1 2.25-.25.1-.4-.5-.4-1.35m9.5-5.5c0-1.45.15-1.55 1.75-1.55 1.15 0 1.75.25 1.75.65 0 .6-.6 1.05-3.1 2.25-.25.1-.4-.5-.4-1.35m6-3.5c0-1.45.15-1.55 1.75-1.55 1.15 0 1.75.25 1.75.65 0 .6-.6 1.05-3.1 2.25-.25.1-.4-.5-.4-1.35m26.5-15.5c0-1.3.2-1.55 1.25-1.55.8 0 1.25-.3 1.25-.75 0-.5.55-.75 1.75-.75 1.05 0 1.75.25 1.75.65 0 .45-3.55 2.85-5.6 3.75-.25.1-.4-.5-.4-1.35m99-57.5c0-1.45.15-1.55 1.75-1.55 1.15 0 1.75.25 1.75.65 0 .6-.6 1.05-3.1 2.25-.25.1-.4-.5-.4-1.35m15.5-9c0-1.45.15-1.55 1.75-1.55 1.4 0 1.75-.2 1.75-1s.35-1 1.75-1c1.1 0 1.75.25 1.75.65 0 .5-4.3 3.25-6.6 4.25-.25.1-.4-.5-.4-1.35m25-14.5c0-1.45.15-1.55 1.75-1.55 1.15 0 1.75.25 1.75.65 0 .6-.6 1.05-3.1 2.25-.25.1-.4-.5-.4-1.35m64.25-45.4c-3-1.8-8.65-5.15-12.5-7.4s-10.95-6.4-15.75-9.25c-4.8-2.8-10.3-6-12.25-7.1-1.9-1.1-4.85-2.85-6.5-3.85-1.65-1.05-5.2-3.2-7.85-4.75-2.7-1.6-5-3.25-5.15-3.75-1.05-3.4-1.2-31.65-1.25-227.2 0-116.55.15-212.75.3-213.85.3-1.8.45-2 1.8-2 1 0 4.2-1.6 9.35-4.6 4.3-2.55 9.5-5.55 11.55-6.75 9.5-5.4 15.5-8.95 27.5-16.15 7.1-4.25 13.45-8.1 14.05-8.55l1.2-.8-2.45-1.45c-1.3-.8-2.7-1.75-3.05-2.05-.4-.35-.9-.65-1.2-.65-.25 0-.8-.3-1.15-.6-.4-.35-2.6-1.6-4.9-2.75-2.35-1.15-4.85-2.65-5.55-3.3-.7-.7-1.75-1.4-2.35-1.55-.6-.2-1.1-.7-1.1-1.1s-.5-.7-1.2-.7-1.55-.3-1.9-.65-1.4-.95-2.25-1.3c-.9-.35-1.65-.85-1.65-1.1s-.35-.45-.8-.45c-.9 0-8.35-3.9-12-6.3-1.4-.95-2.65-1.7-2.8-1.7s-2.25-1.25-4.7-2.75c-2.45-1.45-6-3.65-7.95-4.8-1.9-1.15-3.55-2.3-3.65-2.55-.1-.2-.45-.4-.85-.4-1.25 0-32.85-18.25-33.75-19.5-.15-.2-.75-.5-1.35-.7-.65-.2-1.15-.55-1.15-.8 0-.2-.55-.55-1.25-.7-.7-.2-1.25-.65-1.25-1.05s-.45-.75-1.05-.75c-1.35 0-4.95-2.1-4.95-2.85 0-.35-.55-.65-1.25-.65-.8 0-1.25-.3-1.25-.75 0-.4-.45-.75-1-.75-1.2 0-3.5-1.05-3.5-1.6 0-.2-.3-.4-.7-.4s-1.6-.5-2.65-1.1c-2.5-1.5-6.75-4.25-7.45-4.8-.3-.25-1-.65-1.6-.8-.6-.2-1.1-.55-1.1-.8 0-.2-.55-.55-1.25-.7-.7-.2-1.25-.55-1.25-.8 0-.3-.45-.5-1-.5s-1-.2-1-.45-.55-.6-1.25-.75c-.7-.2-1.25-.55-1.25-.8 0-.3-.35-.5-.75-.5s-.75-.35-.75-.75c0-.45-.45-.75-1.1-.75-1.85 0-2.5-.7-2.3-2.45l.15-1.55 10.75 6.3c5.9 3.45 14.35 8.4 18.75 10.95s13.2 7.65 19.5 11.35c6.35 3.7 16.9 9.85 23.5 13.65 6.6 3.75 13 7.5 14.25 8.25s8.45 4.95 16 9.25c12.05 6.95 18.9 10.95 37.05 21.65 2.35 1.4 4.5 2.85 4.85 3.2.4.5.5 71 .45 259.65l-.1 259-2.75.1c-2.6.15-3.05-.05-8.25-3.2"/>
    <path d="M214 512V341h6v1.7c0 1.4-.2 1.75-1.1 1.9l-1.15.15V683H214zm31.5 169v-2h8.5v4h-8.5zm75.1-1.75c-.55-.7-1.2-1.25-1.4-1.25-.6 0-4.2-3.45-4.2-4.05 0-.25-.3-.45-.65-.45s-2.05-1.4-3.75-3.15c-2.5-2.55-3.1-3.45-3.1-4.75 0-1.55.05-1.6 2.15-1.6 2.05 0 2.4.25 5.75 3.65 1.95 1.95 5 4.9 6.8 6.55 2.85 2.5 3.3 3.2 3.3 4.6 0 1.65-.05 1.7-1.95 1.7-1.5 0-2.2-.3-2.95-1.25m-21.1-22c0-1.7.05-1.75 2-1.75s2 .05 2 1.75-.05 1.75-2 1.75-2-.05-2-1.75m-7.05-6.65c-2.5-2.6-7.5-9.45-8.7-12-.55-1.15-1.15-2.1-1.35-2.1-.25 0-.4-.25-.4-.5 0-.3-.45-1.05-1-1.65-.6-.6-1.15-1.6-1.3-2.2-.2-.65-.5-1.15-.75-1.15s-.45-.8-.45-1.75c0-1.7.05-1.75 2-1.75 1.1 0 2 .25 2 .5 0 .3.45 1.05 1 1.65.6.6 1.15 1.6 1.3 2.2.2.65.5 1.15.75 1.15s.45.2.45.45c0 .3.6 1.15 1.3 1.9.75.75 3.1 3.75 5.25 6.65s4.25 5.65 4.65 6.15c.45.45.8 1.65.8 2.6 0 1.7-.05 1.75-1.85 1.75-1.55 0-2.25-.4-3.7-1.9m-18.3-27c-1.95-3.3-7.65-14.8-7.65-15.45 0-.3-.15-.65-.35-.75-.55-.2-2.15-3.75-2.15-4.65 0-.4-.2-.75-.5-.75-.25 0-.6-.85-.8-1.85-.2-1.05-.65-2.1-1-2.4-1.5-1.2-7.05-18-10.45-31.75-2.65-10.6-5.25-27-5.25-32.85 0-.45.8-.65 2.2-.65 2.55 0 2.55 0 3.05 5 .7 7 2.85 19.7 4.45 26.25 1.4 5.8 5.4 18.55 7.8 25 1.3 3.55 2.55 7.1 2.7 7.9.2.75.55 1.35.8 1.35.3 0 .5.45.5 1 0 1.15 1.5 4.5 2.05 4.5.2 0 .5.8.65 1.75.2.95 1.15 2.9 2.15 4.35 2.6 3.8 6.65 12.6 6.65 14.4 0 1.4-.1 1.5-1.85 1.5-1.65 0-2.05-.25-3-1.9m79.15-77.15c-.15-.85-.3-2.2-.3-3 0-1.3.15-1.45 1.7-1.45 1.95 0 2.3.55 2.3 3.8 0 2.15-.05 2.2-1.7 2.2-1.5 0-1.7-.2-2-1.55m-1.05-5.55c-1.35-4.05-3.05-26.6-2.5-33.1l.35-4.3h3.25l.3 11.4c.2 6.25.65 13.6 1.1 16.35s.9 6.2 1.1 7.65l.3 2.6h-1.85c-1 0-1.9-.3-2.05-.6M245 512.25c0-7.9.1-9.25.75-9.25.4 0 .75-.2.75-.5 0-.25.8-.5 1.8-.5h1.85l-.35 2.65c-.15 1.4-.3 5.8-.3 9.75v7.1H245zm1-20.95c0-2.25.15-2.7 1-2.95 1.05-.25 1.45-2.35.45-2.35-.75 0-.35-5.75.85-12.1l.9-4.9h4.95l-.35 3.1c-.2 1.75-.55 3.25-.75 3.4-.25.15-.55 1.85-.7 3.75-.3 4.05-1.25 12-1.65 13.65-.2.95-.55 1.1-2.45 1.1H246zm106.15-4.4c.15-1.75.65-4.25 1.05-5.65.4-1.35 1.2-4.4 1.8-6.75 2.15-8.75 9.45-26.15 11.2-26.8.45-.15.8-.6.8-1s.25-.7.5-.7c.3 0 .5-.55.5-1.25 0-1.1.2-1.25 1.75-1.25 1.7 0 1.75.05 1.75 2 0 1.1-.2 2-.5 2-.25 0-.5.45-.5.95 0 .55-.15 1.05-.35 1.15-.8.35-4.7 8.4-7.3 15.15-2.75 7.1-5.8 17.1-6.85 22.4-.55 2.85-.6 2.85-2.35 2.85h-1.8zM252 464.75c0-.4-.2-.75-.5-.75-.6 0-.65-4-.05-4.95.25-.35 1.45-.8 2.75-.9 2.2-.25 2.3-.25 2.3 1 0 .7-.25 2.4-.6 3.8-.55 2.45-.65 2.55-2.25 2.55-1.15 0-1.65-.25-1.65-.75m3-11.5c0-.4-.2-.75-.5-.75-.6 0-.65-2.35-.05-4.3.25-.8.7-2.4 1.05-3.55.35-1.2.85-2.15 1.1-2.15.2 0 .4-.6.4-1.35 0-1.25.6-3.35 2.9-10 .4-1.2.95-2.15 1.15-2.15.25 0 .45-.45.45-1s.15-1 .4-1c.2 0 .6-1.1.95-2.4.65-2.75 4.85-12.1 5.8-12.85.35-.25 1.15-1.7 1.8-3.1.7-1.45 1.5-2.65 1.9-2.65.35 0 .65-.55.65-1.25 0-.9.25-1.25 1-1.25.8 0 1-.35 1-1.55 0-1.5 2.4-6.45 3.15-6.45.2 0 .35-.3.35-.7s.15-.8.4-.9c.2-.05.75-1 1.3-2 .5-1 1.35-2.3 1.85-2.85.55-.55.95-1.15.95-1.3 0-.55 5.45-8.65 7.75-11.5 4.8-5.95 5.8-6.75 8.65-7.1l2.6-.3v1.65c0 1.25-.7 2.45-3.15 5.45-1.75 2.1-5.1 6.4-7.4 9.55s-4.3 5.85-4.45 6-.6.9-1 1.65c-.4.8-1.25 2-1.85 2.65-.65.7-1.15 1.55-1.15 1.95 0 .35-.15.75-.35.85-.25.1-1.05 1.45-1.9 3-.8 1.6-1.6 2.9-1.75 2.9-.2 0-.6.8-.95 1.75s-.95 1.75-1.35 1.75-.7.45-.7 1c0 1.05-1.8 5-2.5 5.5-.4.3-5.7 11.65-6.2 13.4-.2.6-.6 1.1-.85 1.1s-.45.55-.45 1.25-.2 1.25-.5 1.25c-.25 0-.5.35-.5.75 0 1.1-3.6 11.5-4.1 11.65-.2.1-.4.55-.4 1 0 .5-.5 2.7-1.1 5-1.1 4.05-1.15 4.1-2.75 4.1-1.15 0-1.65-.25-1.65-.75m117.5-15c0-.95.25-1.75.5-1.75.3 0 .5-.25.5-.55 0-1.1 5.95-8.4 11.7-14.3 5.3-5.45 6.15-6.15 7.65-6.15 1.6 0 1.65.05 1.65 1.95 0 1.55-.3 2.2-1.5 3.2-.8.7-1.65 1.35-1.85 1.45-.7.3-8.8 9.5-11.35 12.9-3.4 4.45-4 5-5.8 5-1.4 0-1.5-.15-1.5-1.75M307 360.9c0-2.6.1-2.75 3.05-5.65 1.7-1.65 4-3.95 5.15-5.1 1.1-1.15 3.75-3.35 5.8-4.9 2.05-1.5 4.2-3.1 4.75-3.5.5-.4 1.9-.75 3.1-.75H331v1.95c0 1.65-.25 2.15-1.6 3.15-.9.6-2.3 1.7-3.15 2.45-.8.75-2.75 2.4-4.25 3.7s-4.8 4.35-7.3 6.8c-3.75 3.7-4.8 4.45-6.1 4.45-1.6 0-1.6 0-1.6-2.6m-52.5-17.6c0-.95.3-1.8.65-1.95.35-.1 3.95-.25 8-.3l7.35-.05v1.7c0 1.6-.05 1.7-2.35 2-1.35.15-4.95.3-8 .25h-5.65zm23.5-23.05V301h1.7c1.5 0 1.7.2 2 1.55.4 2.05.4 29.95 0 33.9l-.35 3.05H278zm58.85 16.9c-.2-.15-.35-1-.35-1.85 0-1.35.5-1.95 3.3-4.2 1.8-1.4 3.5-2.6 3.7-2.6.25 0 1.75-.8 3.35-1.75s3.4-1.75 3.95-1.75c.65 0 1.2-.4 1.35-1 .15-.65.85-1.1 1.8-1.3.85-.2 1.55-.5 1.55-.7 0-.5 2.35-1.5 3.5-1.5.55 0 1-.3 1-.65 0-.95 2.2-1.85 4.5-1.85 2 0 2 0 2 2 0 2.15-.9 3-3.2 3-.8 0-1.3.3-1.3.75 0 .75-2.4 2.25-3.65 2.25-.4 0-.85.35-1.05.75-.15.45-.9.75-1.8.75q-1.5 0-1.5.75c0 .45-.5 1-1.1 1.25-1.25.55-3.4 1.95-8.7 5.65-2.55 1.75-3.9 2.35-5.25 2.35-.95 0-1.95-.15-2.1-.35m31.65-19c0-2.9.5-3.5 3.9-5.05 1.85-.85 4.8-2.2 6.6-3s4.25-1.9 5.5-2.35c1.25-.5 3.15-1.3 4.25-1.75 1.1-.5 4.95-1.8 8.5-2.9 20.65-6.45 35.55-9.3 55-10.6 4.7-.3 10.15-.75 12.15-1.05 4.2-.5 18.3-.6 21.8-.15l2.35.35-.15 2.05-.15 2.05-5.75-.15c-7.05-.2-23.9.65-32.95 1.7-26.55 3.05-52.4 10.05-72.9 19.8-2.8 1.3-5.75 2.4-6.6 2.4-1.35 0-1.55-.15-1.55-1.35M797.4 162.9c-.4-.35-2-1.3-3.6-2.1s-3.15-1.7-3.5-2c-.3-.3-1.65-1.1-2.95-1.75S785 155.7 785 155.5s-.55-.55-1.25-.7c-.7-.2-1.25-.55-1.25-.8 0-.3-.4-.5-.9-.5s-1.4-.45-1.95-1c-.6-.5-1.65-1.1-2.35-1.3-.75-.15-1.5-.55-1.7-.9-.2-.3-1.85-1.35-3.7-2.25-1.9-.95-3.4-1.95-3.4-2.15s-.3-.4-.7-.4-1.05-.3-1.4-.6c-.4-.35-1.95-1.3-3.55-2.15-1.55-.8-2.85-1.6-2.85-1.75s-.8-.6-1.75-.95-1.75-.85-1.75-1.1-.3-.45-.7-.45-1.05-.3-1.4-.6c-.4-.35-1.95-1.3-3.55-2.15-1.55-.8-2.85-1.65-2.85-1.85s-.3-.4-.7-.4-2.15-.9-3.95-2c-1.8-1.05-5.6-3.25-8.45-4.8-2.8-1.55-6.25-3.55-7.65-4.45-1.35-.85-2.85-1.7-3.25-1.85-1.05-.4-9.1-5.2-10-6-.4-.35-1.45-.95-2.25-1.3-.85-.4-4.4-2.45-8-4.6-3.55-2.1-8.4-4.9-10.75-6.15s-4.7-2.7-5.25-3.2c-.55-.55-1.4-1.1-1.95-1.3-1.55-.6-10.55-6-10.7-6.45-.1-.2-.6-.4-1.1-.4s-1.1-.25-1.3-.55c-.15-.3-.95-.8-1.7-1.15-3.05-1.25-17.45-10.1-17.5-10.65 0-.35-.55-.65-1.2-.65-.7 0-1.55-.35-2-.75-.4-.4-.9-.75-1.05-.75-.3 0-4.85-2.5-10.25-5.65-.95-.55-3-1.7-4.5-2.55-8.45-4.85-14.25-8.4-14.4-8.85-.1-.25-.4-.45-.65-.45-.7 0-11.6-5.95-12.2-6.65-.3-.35-1.6-1.15-2.95-1.85-1.35-.65-2.7-1.45-3-1.75-.35-.25-1.7-1.1-3.05-1.8-6.2-3.2-21.7-12.25-22.25-12.95-.15-.15-1-.6-1.85-.95-.9-.4-1.65-.85-1.65-1.05s-.55-.55-1.25-.7c-.7-.2-1.25-.55-1.25-.8 0-.3-.35-.5-.75-.5s-.75-.45-.75-1c0-.8-.35-1-1.7-1-.95 0-2.05-.3-2.4-.6-.35-.35-1.75-1.2-3.1-1.9-1.35-.65-2.7-1.45-3-1.75-.3-.25-2.1-1.3-3.95-2.25S551 19.6 551 19.4c0-.25-.3-.4-.7-.4s-1.05-.3-1.4-.7c-.4-.35-1.2-.8-1.8-1s-1.4-.65-1.75-.95c-.35-.35-2.15-1.4-4-2.3-1.85-.95-3.35-1.9-3.35-2.05s-.8-.6-1.75-.95-1.75-.95-1.75-1.35-.5-.7-1.2-.7-1.55-.3-1.9-.65-1.4-.95-2.25-1.3c-.9-.35-1.65-.85-1.65-1.1s-.35-.45-.75-.45-.75-.45-.75-1c0-.8-.35-1-1.75-1-1.65 0-1.75-.1-1.75-1.75V.05l5.4 3.05c12.55 7.15 35.9 20.55 36.35 20.9.3.2 6.7 3.9 14.25 8.25s17.45 10.1 22 12.75c4.55 2.7 11.95 7 16.5 9.6s15 8.65 23.25 13.5c8.25 4.8 19.3 11.2 24.5 14.25 12.15 6.95 31.55 18.3 47.5 27.7 6.9 4 15.65 9.1 19.5 11.3s10.25 5.9 14.25 8.25c11.25 6.6 24.5 14.35 33 19.25 4.25 2.5 11.2 6.5 15.4 8.95 4.15 2.45 7.6 4.7 7.6 5.05 0 .85-3.7.85-4.6.05"/>
  </g>
  <g fill="#234395">
    <path d="M509 1022.8c0-1.4 1.65-1.9 4.9-1.45 1.8.25 2.1.45 2.1 1.45 0 1.15-.15 1.2-3.5 1.2s-3.5-.05-3.5-1.2m-47.6-20.2c-1.55-.9-1.85-2.1-.6-2.1 1.35 0 2.7 1 2.7 2 0 1.2-.35 1.25-2.1.1m-50.25-29.25c-1.45-.85-2.65-1.85-2.65-2.2 0-.95.7-.8 3.5.6 1.75.9 2.5 1.55 2.5 2.25 0 1.25-.2 1.25-3.35-.65M384.9 958.1c-1.35-.8-1.9-2.1-.9-2.1 1.2 0 3 1.25 3 2.1 0 1.1-.3 1.1-2.1 0m-7.75-4.5c-1.75-1-3.15-2.1-3.15-2.45 0-1 1.9-.75 3 .35.55.55 1.3 1 1.65 1 1 .05 2.35 1.3 2.35 2.2 0 1.1-.3 1-3.85-1.1m-25.75-15c-1.45-.85-1.9-2.1-.75-2.1 1 0 2.85 1.5 2.85 2.3 0 .9-.45.85-2.1-.2m-60-35c-1.35-.8-1.9-2.1-.9-2.1 1.2 0 3 1.25 3 2.1 0 1.1-.35 1.1-2.1 0m450.1-6.55c0-1.45.15-1.55 1.75-1.55 1.15 0 1.75.25 1.75.65 0 .6-.6 1.05-3.1 2.25-.25.1-.4-.5-.4-1.35m-466.6-2.95c-1.35-.8-1.9-2.1-.9-2.1 1.2 0 3 1.25 3 2.1 0 1.1-.35 1.1-2.1 0m236.6-13.05c0-.25.35-.55.75-.75.45-.15.75 0 .75.45 0 .4-.35.75-.75.75s-.75-.2-.75-.45m-3-2.25c-2.65-1.75-13.4-8.15-20.75-12.3-3.55-2-10.75-6.15-16-9.25-13.3-7.9-21.85-12.9-30.25-17.75-4-2.3-11.85-6.9-17.5-10.25s-13.5-7.95-17.5-10.25c-9-5.2-13.25-7.65-22.5-13.1-4-2.3-9.4-5.45-12-7-2.6-1.5-9.15-5.35-14.5-8.5s-13.35-7.85-17.75-10.4-11.5-6.7-15.75-9.25c-14.85-8.8-22.3-13.15-28.25-16.55-3.3-1.85-8.2-4.8-10.9-6.55L280 744.5l.25-19.6c.1-10.8.05-23.45-.15-28.15-.25-6.6-.4-2.25-.6 19.75-.25 26.4-.3 28.25-1.15 28.4-.6.15-.85-.15-.85-1.05 0-.7.25-1.35.5-1.45.65-.2.8-48.8.15-54.9l-.4-4.25-13.35-.15c-8.35-.05-13.4-.3-13.4-.6s-.55-.5-1.25-.5-1.25.25-1.25.5c0 .3-5.9.5-16.7.5h-16.7l-.3-1.1c-.55-2.15-.35-339.55.2-340.1.4-.4 9.1-.6 26.4-.65 14.2-.05 28.2-.1 31.1-.15h5.3l.6-5.4c.7-6.45.8-27.8.1-30.75-.25-1.15-.55-7.85-.6-14.9l-.2-12.8 7.8-4.45c4.25-2.45 12.95-7.45 19.25-11.15 12.4-7.25 12.85-7.5 25.25-14.65 11-6.35 22.45-13 32.5-18.9 4.55-2.7 14.8-8.65 22.75-13.25 8-4.6 16.55-9.55 19-11 2.5-1.45 14.3-8.35 26.25-15.3s26.3-15.3 31.9-18.55c5.55-3.25 16.25-9.45 23.75-13.7 16.4-9.4 21.8-12.6 23-13.6.8-.7.85-4.75.85-71.7V0h6.4c4.45.05 6.6.25 7.2.7.5.35.7.8.5 1-.2.25 0 .35.4.25 1.25-.25 3 .55 3 1.4 0 .45.3.65.65.5.4-.15 1-.05 1.4.2.6.35.6.45-.05.45-.55 0-.45.2.25.6.85.5 1.5.65 3.5.85.3.05.15.3-.25.55s-.5.5-.25.55c.3.05.95.15 1.55.2 1.4.15 3.25 1.2 2.2 1.25-.4 0-.15.35.65.8.75.4 1.55.65 1.75.5s.7-.05 1.1.25c.65.35.65.45 0 .45s-.65.05 0 .5c1 .65 1.65.6 1.2-.1-.2-.35-.15-.4.25-.2.3.2.45.55.3.8-.3.5 3.6 2.65 4.15 2.3.2-.1.9.1 1.6.5l1.25.75-1.25-.3c-1.15-.3-1.2-.25-.25.3.85.55 1.5.7 3.5.9.3.05.15.3-.25.55s-.5.5-.25.55c.3.05.95.15 1.55.2.55.05 1.45.35 2 .7.85.55.85.55-.3.3l-1.25-.3 1.25.75c1.5.9 2.2 1 1.7.2-.2-.35-.15-.4.25-.2.3.2.45.55.3.8-.3.5 2.6 2.15 3.15 1.8.2-.15.7-.05 1.1.25.65.35.65.45 0 .45s-.65.05 0 .5c1 .65 1.65.6 1.2-.1-.2-.35-.15-.4.25-.2.3.2.45.55.3.8-.3.45 2.35 2.05 3.1 1.95.2-.05.75-.05 1.15 0 .65.05.65.1 0 .55-.4.25-.5.5-.25.55.3.05.95.15 1.5.2 1.6.15 3.3 1.25 2.95 1.8-.15.3 0 .5.35.4.4-.05 1.05-.05 1.45 0 .65.05.65.1 0 .55-.4.25-.5.5-.25.55.3.05.95.15 1.55.2.55.05 1.45.35 2 .7.85.55.85.55-.3.3l-1.25-.3 1.25.75c1.5.9 2.2 1 1.75.25-.2-.3.1-.25.7.1.6.4.8.8.5 1-.35.2-.2.45.3.65 1.2.45 1.35.4.95-.3-.2-.35-.15-.4.25-.2.3.2.45.55.3.8s.7 1 1.9 1.7c2.3 1.4 3.1 1.6 2.6.8-.15-.3.05-.35.5-.15.6.2.65.4.25.65s1.35 1.5 4.55 3.25c2.85 1.6 5.7 3.2 6.3 3.55 1.3.8 1.85.9 1.4.2-.15-.3.05-.35.5-.15.6.2.7.4.2.65-.4.25.1.75 1.45 1.45 2.35 1.2 2.8 1.3 2.3.5-.15-.3.3-.15 1.1.35 2.05 1.25 2.1 1.35.7 1-.8-.25-.4.15 1 1 1.2.75 2.65 1.45 3.25 1.5.55.05 1.25.15 1.5.15.3.05.2.25-.15.5-.7.4.95 1.55 5.75 4 2.4 1.2 2.85 1.3 2.35.45-.2-.35-.15-.4.25-.2.3.2.45.55.3.8s.4.8 1.2 1.25c1.75.9 2.25.95 1.75.2-.15-.3.3-.15 1.1.35 2.05 1.25 2.1 1.35.7 1-.7-.2.15.55 1.9 1.65 4.8 3.15 9.35 5.3 6.8 3.25-.9-.7-.9-.75.2-.2.6.3 1 .75.85.95-.3.55.35 1.05 3.75 2.9 1.5.85 3.6 2 4.65 2.6 2.1 1.15 2.55 1.3 2.1.55-.15-.3.05-.35.5-.15.6.2.7.4.2.65-.4.25.1.75 1.45 1.45 2.35 1.2 2.8 1.3 2.3.45-.2-.35-.15-.4.25-.2.3.2.45.55.3.8-.3.45 2.35 2.05 3.1 1.95.2-.05.75-.05 1.15 0 .65.05.65.1 0 .55-.4.25-.5.5-.25.55.3.05.95.15 1.5.2s1.7.5 2.5.95c1.35.75 1.4.8.25.55l-1.25-.3 1.25.75c1.55.95 2.15 1 1.7.2-.2-.4-.15-.5.1-.25s.45.7.45 1c0 .25.3.6.7.75s.55 0 .35-.35c-.25-.35-.05-.45.45-.2.55.2.65.4.3.65-.55.3 10.15 7 12.3 7.7.6.2 1.35.65 1.65 1.05.35.4 1 .75 1.4.75.65 0 .6-.15-.2-.8-.7-.55-.5-.5.65.1.95.5 1.4 1.05 1.1 1.25-.35.2-.2.45.3.65 1.2.45 1.35.4.95-.3-.2-.35-.15-.4.25-.2.3.2.45.55.3.8s1.75 1.55 4.2 2.95c4.5 2.6 5.35 2.95 4.8 2-.2-.3.1-.25.7.15.6.35.85.7.55.8-.85.3 1.3 1.7 8 5.35 3.45 1.85 7.05 3.95 8 4.55 2 1.4 2.9 1.55 1.95.35-.65-.75-.6-.75.4-.1.7.4.9.8.55 1s-.15.55.5.9c1.45.8 1.85.7 1.05-.3-.65-.75-.6-.75.4-.1.7.4.9.8.55 1-.3.2.3.8 1.5 1.4 2.3 1.15 2.8 1.3 2.35.55-.15-.3.5-.05 1.45.55 1.9 1.1 2.5 1.85.75.95-.55-.35-1.15-.45-1.3-.35-.15.15.5.65 1.45 1.1.9.5 3.25 1.85 5.2 3.05 3.5 2.15 5.1 2.75 4.4 1.6-.2-.35-.15-.4.25-.2.3.2.45.55.3.8s.15.7.7.95c1.25.7 1.7.7 1.25 0-.2-.4 0-.4.75 0 1.25.7 1.4 1.15.2.7-1.55-.6-.15.85 1.85 1.85 2.4 1.2 2.85 1.25 1.95.15-.65-.75-.6-.75.4-.1.7.4.9.8.55 1-.3.2.5.9 2 1.65 1.4.7 4.6 2.5 7.15 4.05 4.45 2.7 5.85 3.25 5.2 2.25-.15-.3.5-.05 1.45.55 1.85 1.1 2.55 1.9.85.95-2.2-1.15-1.65-.4.7 1 2.65 1.55 3.55 1.85 3 .95-.2-.3.1-.25.7.1.6.4.8.8.5 1-.35.2-.2.45.3.65 1.15.45 1.35.4.95-.25-.15-.3.3-.15 1.1.35 2.05 1.25 2.1 1.35.7 1-1.2-.3-1.2-.3.15.45.75.45 1.55.7 1.75.55s.7-.05 1.1.25c.65.35.65.45 0 .45s-.65.05 0 .5c1 .65 1.65.6 1.2-.1-.2-.35-.15-.4.25-.2.3.2.45.55.3.8s.4.8 1.2 1.25c1.75.9 2.25.95 1.75.2-.15-.3.3-.15 1.1.35 2.05 1.25 2.1 1.35.7 1-.95-.3-1.05-.25-.5.15.4.3 1.2.55 1.8.55.55 0 1.45.35 2 .8.9.75.9.75-.15.25-2.4-1.2-1.7-.4 1.1 1.2 3.15 1.8 4.05 2.15 3.45 1.2-.15-.3.3-.15 1.1.35 2.05 1.25 2.1 1.35.7.95q-1.275-.375-.75.15c.75.75 2.95 1.35 2.55.65-.2-.3.45-.1 1.4.5 1.85 1.1 2.55 1.9.85.95-1.5-.8-1.9-.6-.65.3.65.45 1.45.7 1.8.55s.95-.05 1.35.2c.6.35.6.45-.05.45s-.65.05 0 .5c1 .65 1.65.65 1.25-.05-.2-.3.1-.25.7.1.55.4.8.8.55.95-.3.2.4.8 1.5 1.45 1.1.6 2.2 1 2.4.85.2-.1.7-.05 1.1.25.65.35.65.45 0 .45s-.65.05 0 .5c1 .65 1.65.6 1.2-.1-.2-.35-.15-.4.25-.2.3.2.45.55.3.8-.3.5 3.6 2.65 4.15 2.3.25-.15.7-.05 1.1.25.65.35.65.45 0 .45s-.65.05 0 .5c.95.6 1.65.65 1.25.05-.15-.25 3.1 1.45 7.25 3.85 4.1 2.4 7.5 4.6 7.5 4.9 0 .35.35.75.8.9 1.1.45 1.3.4.95-.25-.2-.3.1-.25.7.15.6.35 1.05.9 1.05 1.25s.25.65.55.65c.25 0 .35-.25.2-.55-.2-.3.1-.25.7.1.6.4.8.8.5 1-.35.2-.2.45.3.65 1.15.4 1.35.4 1-.2-.15-.25.4-.1 1.2.4.85.45 1.55 1.15 1.55 1.5 0 .65.05.65 1.9.85 1.3.15 2.15.75 1.05.75-.55 0-.55.1.05.5 1 .65 1.65.65 1.2-.05-.15-.3.3-.15 1.1.35 2.05 1.25 2.1 1.35.7.95-.7-.15 0 .45 1.5 1.45 6.2 3.95 8.55 5.1 7.75 3.75-.2-.3.1-.25.7.1.65.45.8.8.45 1-.65.4 1.25 1.2 3.5 1.4.3 0 .6.4.6.8s.25.75.55.75c.25 0 .35-.25.2-.5-.15-.3.55 0 1.6.6 2.5 1.4 2.65 1.6 1.15 1.15-.9-.2-.65.05.75.95 1.1.7 2.45 1.3 3 1.3 1.25 0 2.95 1 1.75 1-.65 0-.65.05 0 .5 1 .65 1.65.65 1.25 0-.2-.3.85.2 2.35 1.05 3.3 2 3.45 2.15 1.9 1.7-1.15-.3-1.15-.25.25.7 1.8 1.25 2.65 1.35 1.7.2-.65-.75-.6-.75.4-.1.7.4.9.8.55 1-.3.2 1.65 1.6 4.3 3.15s7 4.1 9.7 5.65c8.1 4.75 15.2 8.65 15.7 8.65.25 0 .3-.25.1-.55-.15-.3.3-.15 1.1.35 2.05 1.25 2.1 1.35.7.95-.9-.2-.65.05.75.95 2.1 1.35 3 1.65 2.5.8-.15-.3.05-.35.5-.15.6.2.65.4.2.65-.4.3-.3.55.45.95 1.45.8 1.85.7 1.05-.3-.6-.7-.5-.7.7.05 1.55 1.05 1.75 1.4.5.95-1.7-.6.05.75 4.3 3.3 2.3 1.4 4.3 2.55 4.45 2.55s1.4.75 2.8 1.7c3.25 2.1 11.05 6.3 11.8 6.3.3 0 .4-.25.25-.55-.2-.3.1-.25.7.1.55.4.8.8.5.95-.25.2.1.6.8.9 1.6.75 1.9.75 1.5.1-.15-.25.95.25 2.45 1.15 1.5.85 2.5 1.75 2.2 1.9-.25.15-.1.45.35.65 1.15.45 1.35.4 1-.25-.2-.3.1-.25.7.15.6.35.8.75.55.8-.8.3 2.2 2.4 6.1 4.4 3.65 1.85 4.65 2.15 3.1.9-.7-.55-.5-.5.65.1.95.5 1.4 1.05 1.1 1.25-.35.2-.2.45.3.65 1.15.45 1.35.4 1-.25-.2-.3.1-.25.7.1.6.4.8.8.5 1-.35.2-.2.45.3.65 1.2.45 1.35.4.95-.3-.2-.4-.15-.5.1-.25s.45.6.45.85c0 .2 1.1 1.15 2.45 2.1s2.55 1.9 2.65 2.2c.15.45-20.65 13.35-30.85 19.1-6.5 3.65-10.65 6.05-20.5 11.85-13.2 7.8-14.55 8.5-15.05 7.7-.3-.5-.45-.3-.45.7 0 .75-.2 1.35-.5 1.35-.85 0-1.5-3.65-1.5-8.35V281h-55.75c-36.25 0-55.75-.15-55.75-.5 0-.3-5.2-.55-13.85-.65l-13.9-.1 14.65-.15c9.3-.05 14.6-.3 14.6-.6 0-.45-9.85-.65-31-.75-3.15 0-3.45-.15-9.5-3.7-3.45-2.05-9.3-5.5-13-7.7-3.7-2.15-9.9-5.85-13.75-8.1-13.3-7.9-20.5-12.1-24-14-1.9-1.05-5.3-2.95-7.5-4.3-5.8-3.4-38.25-22.3-50.25-29.2-5.65-3.25-10.8-6.25-11.5-6.75-.7-.45-4.75-2.8-9-5.25s-8.6-4.95-9.6-5.55c-1-.65-3.6-2.15-5.75-3.35s-9.4-5.4-16.15-9.3c-20.9-12.2-36.6-21.3-50.75-29.45-5.5-3.15-10.6-6.2-11.35-6.75s-1.5-.9-1.7-.75c-.15.15-.25 34.05-.25 75.35l.05 75.05h-1.35c-.8 0-3.4-.25-5.85-.5-2.45-.3-4.85-.4-5.35-.25-1.6.5-1.05 1.25.95 1.3q1.725.075.75.3c-.65.1-1.15.45-1.15.7 0 .8-5 .55-5.3-.3-.35-.85-1.7-1.05-1.7-.25 0 .3-1.75.5-4.25.5-3.35 0-4.25-.15-4.25-.7 0-.4-.4-.85-.85-.95-.5-.15.1-.25 1.3-.2 1.3.05 2.3-.15 2.4-.45.35-1.1-9.95-1.55-18.95-.9-2.95.25-3.75.45-3.55 1 .15.35.4.65.55.6 1.25-.15 2.1.2 2.1.85 0 .6-.65.75-3 .75-1.65 0-3-.2-3-.45s-.4-.6-.85-.7c-.5-.15-.15-.25.75-.3 2.75-.1 1.75-1.05-1.15-1.05-2.1 0-2.75.15-2.75.75 0 .4.35.75.75.75s.75.3.75.7c0 .45-1.05.75-3.6 1-2 .15-4.7.45-6 .6-1.95.25-2.4.2-2.4-.45 0-.45.6-.9 1.5-1.1 2.85-.6 1.6-1.35-1.85-1.1-8.4.6-14.25 1.5-25.15 3.9-9.9 2.2-26.05 6.9-31 9.05-1.25.55-3.05 1.3-4 1.75-.95.4-2.1.8-2.5.9s-3.5 1.45-6.85 3.1c-4.15 1.95-6 3.1-5.75 3.5s1.65 0 4.85-1.55c5.15-2.45 9.05-4.1 10.55-4.55.9-.25 1.05-.1.85.95-.25 1.25-1.35 1.8-3.75 1.8-.85 0-1.4.25-1.4.7 0 .75-1.45 1.3-3.75 1.3-2 .05-5.75 1.75-5.75 2.65S367 322 365.3 322c-.8 0-1.3.3-1.3.75 0 .95-1.55 1.75-3.35 1.75-1 0-1.55.35-1.9 1.1-.3.65-.9 1.2-1.4 1.3-.55.1-1.35.6-1.9 1.15-.5.5-1.4.95-1.9.95s-1.05.35-1.25.75c-.15.4-.85.75-1.55.75s-1.25.3-1.25.65c0 .9-1.8 1.75-4.15 1.95l-1.85.2 1.35-1.15c1.25-1.05 3-2.15 6.45-4.05 1.3-.7 1.6-1.6.6-1.6-.35 0-1.95.8-3.55 1.75S345.25 330 345 330c-.95 0-6.95 5.25-6.5 5.7.3.3 1.25-.05 2.6-.95 1.5-1 1.9-1.1 1.25-.4-.45.55-.85 1.45-.85 2.05s-.15 1.1-.35 1.1c-.25 0-2.55 1.6-5.15 3.5-2.6 1.95-5.1 3.5-5.6 3.5s-.9.35-.9.75-.35.75-.75.75-.75.35-.75.75c0 .5-.5.75-1.6.75-.85 0-1.95.3-2.4.6-.45.35.15-.25 1.35-1.4 2.25-2.15 2.55-2.7 1.5-2.7-.9 0-7.65 5.05-10.15 7.65l-5.1 5.1c-1.95 1.9-2.85 3.1-2.5 3.3.4.25.4.6.1 1.05-.25.4-.1.35.35-.1 2.3-2.3 5.05-4.6 3.8-3.2-.75.8-1.35 2-1.35 2.6 0 .55-.5 1.6-1.15 2.2-.6.65-2.95 3.15-5.2 5.55s-4.55 4.35-5.05 4.35c-1.15 0-2.1.95-2.1 2.05 0 .5-.5.95-1.25 1.05-1.1.25-1 0 1.05-2.4 1.95-2.25 2.1-2.6 1.1-2.35-1.7.45-3.55 2.25-2.8 2.75.45.25.35.4-.35.4-1.6.05-10.3 11.35-9.25 12 .35.25.15.5-.6.7-.85.2-1 .4-.5.75.5.3.4.5-.4.7-.95.25-1 .4-.45 1s.9.4 2.1-1.35c2.1-2.95 2.2-3 1.95-1.3-.1.8-.4 1.5-.65 1.5s-.45.35-.45.75-.2.75-.5.75c-.25 0-.5.55-.5 1.2 0 .8-.35 1.35-1 1.55-.55.15-1 .65-1 1.05s-.2.7-.5.7c-.25 0-.6.8-.8 1.75-.15.95-.5 1.75-.75 1.75s-.45.25-.45.5c0 .3-.55 1.05-1.2 1.65s-1.5 2.05-1.9 3.25-1.1 2.55-1.5 3.05-.9 1.5-1.1 2.2c-.15.75-.55 1.35-.8 1.35-.55 0-2.2 3.15-2.7 5.15-.25 1-.6 1.35-1.55 1.35-1.1 0-1.2-.1-.75-1.3.65-1.65.65-1.7-.25-1.7-.4 0-1.5 1.55-2.55 3.55-1.4 2.85-1.65 3.7-1.1 4 .5.35.5.45-.15.45-1.1 0-2.25 2.5-1.35 3.05.45.3.35.45-.35.5-.55 0-.7.15-.35.3.85.35.75 1.15-.15 1.15-.65 0-.7.1-.15.7s.8.35 1.75-1.6c.65-1.5 1.1-2 1.1-1.35.05 1.5-1.1 6.25-1.55 6.25-.25 0-.4.65-.4 1.45s-.35 1.8-.75 2.25c-.4.4-.75 1.3-.75 2s-.2 1.3-.45 1.3c-.6 0-2.55 5.35-2.55 7.05 0 .8-.2 1.45-.4 1.45-.5 0-1.3 2.35-2.1 6-1.3 6.15-2.2 9.3-2.85 10.25-.35.55-.65 1.9-.65 3.05 0 2.6-1 7.2-1.6 7.2-.2 0-.4 1.35-.4 3s-.2 3-.45 3c-.75 0-1.45 6.05-2.1 17.4-.55 9.75-.7 10.6-1.55 10.6-.5 0-.9-.35-.9-.75s-.35-.75-.75-.75c-.6 0-.75.65-.75 2.75s.15 2.75.75 2.75c.4 0 .75-.35.75-.75s.35-.75.75-.75c.6 0 .75.9.75 5.15 0 2.8.35 9.15.75 14.1.85 10.7.95 14.75.25 14.75-.25 0-.5-.6-.5-1.35 0-2.15-.55-3.65-1.3-3.65-.45 0-.7.55-.7 1.5 0 1.1.25 1.5.9 1.5s.7.1.15.45c-1 .65-.25 6.55.85 6.6.55 0 .6.1.25.3-.95.35-.8 2.65.1 2.65.4 0 .75.25.75.5 0 .3-.2.5-.5.5-.8 0-.6 1.1.4 1.8.5.4.6.65.25.7-.9 0-.8.9.15 1.9.55.5.65.85.25 1-.9.3-.65 1.6.35 1.65.5 0 .6.15.25.3-.9.35-.8 1.65.1 1.65.95 0 .95.35-.25-6.25-.55-3-1.1-6.1-1.25-6.85-.15-.95 0-1.4.45-1.4s.8.95 1 2.65c.55 4.25 1.85 10.05 2.35 10.6.25.25.45 1.6.45 3.05 0 1.85.2 2.7.75 2.9s.75 1.1.75 3.8c0 2.65.15 3.5.7 3.5.8 0 1.3 1.5 1.3 4.3 0 2.55 1.9 8.2 2.75 8.2.75 0 1.25 1.55 1.25 3.9 0 1.1.25 1.6.75 1.6.45 0 .75.45.75 1.25 0 .7.25 1.25.5 1.25.3 0 .5.45.5.95s.3 1.05.7 1.2c.35.15.8.9 1 1.7.35 1.35 1.3 3.45 4.65 10.2.9 1.85 1.65 3.7 1.65 4.15s.25.8.5.8c.3 0 .5.7.5 1.5 0 2.05 1.85 5.55 3.05 5.85.55.15 1.35 1 1.8 1.85s2.8 4.65 5.2 8.45c2.45 3.8 4.45 7.4 4.45 8.05 0 1.65 6.25 9.8 7.55 9.8.55 0 1.1.35 1.25.75.2.4 1 1.5 1.9 2.4 6.85 7.2 12.3 13.4 12.3 13.95 0 1 5.1 5.9 6.15 5.9.45 0 .85.35.85.75 0 .95 3 3.7 4.05 3.75.45 0 .95.45 1.1 1s.6 1 1.05 1c1.05 0 8.75 6.05 8.75 6.9.05.3.5.6 1.05.6s1 .3 1 .65c0 .55 6.9 5.65 9.95 7.3.75.4 2.8 1.7 4.65 2.85 1.85 1.2 3.8 2.2 4.3 2.2.55 0 1.1.35 1.3.75.15.4.75.75 1.3.75s1 .3 1 .65c0 .7 5.3 3.5 7.65 4.05.75.15 1.35.55 1.35.8 0 1.05 19.8 9.75 29.25 12.9 13.85 4.6 33 9.1 38.75 9.1 1.25 0 2.5.2 2.75.45.7.7 10.15 1.95 20.9 2.8 10.6.85 24.25.95 32.85.3 3.15-.3 8.8-.6 12.5-.75l6.75-.25-6.25.7c-22.4 2.45-41.45 2.05-68.25-1.5-2.3-.3-14-2.55-18.25-3.5-14-3.15-33.1-9.75-46.95-16.3-2.85-1.35-5.45-2.45-5.75-2.4-1.85.05 20.95 10.05 29.45 12.85 12.7 4.25 27.9 7.85 41 9.85 1.1.15 4.15.6 6.75 1 15.4 2.3 37.8 2.75 59.4 1.25 4.75-.35 8.8-.45 9-.25s.4 33.85.5 74.8c.1 60.95 0 74.45-.5 74.45-.35 0-1.45-.55-2.4-1.2M361.75 703.7c-1.4-.7-3-1.6-3.6-2-1.25-.8-2.65-.95-1.85-.25.8.75 6.4 3.55 7.2 3.55.4 0-.4-.6-1.75-1.3m-6.25-3.7c-.4-.25-1.1-.5-1.5-.5-.65 0-.65.05 0 .5.4.25 1.1.5 1.5.5.65 0 .65-.05 0-.5m-7.2-4.2c-2.9-1.8-7.35-4.65-9.8-6.35-2.5-1.7-4.65-2.95-4.8-2.85-.25.3 7.6 5.85 11.4 8 1.3.8 3.35 2.05 4.5 2.9 1.2.8 2.55 1.5 3.1 1.5.5 0-1.45-1.45-4.4-3.2m-132.2-67.4c-.05-29.25-.15-60.25-.25-68.9-.05-8.65-.15 15.25-.25 53.15-.05 37.85.05 68.85.3 68.85.2 0 .3-23.9.2-53.1m36.4 52.6c0-.25-1.25-.5-2.75-.5s-2.75.25-2.75.5c0 .3 1.25.5 2.75.5s2.75-.2 2.75-.5m70.75-3c-.5-.55-1.15-1-1.4-1-.3 0-.1.45.4 1s1.15 1 1.4 1c.3 0 .1-.45-.4-1m-1.75-1.7c0-.4-4.55-3.9-4.8-3.65-.35.35 3.45 3.85 4.2 3.85.3 0 .6-.1.6-.2m-8-7.55c-1.75-1.8-3.55-3.25-3.95-3.25-.45 0 .7 1.45 2.45 3.25s3.55 3.25 3.95 3.25c.45 0-.7-1.45-2.45-3.25m-17-18.2c0-.25-.35-.6-.8-.75-1.2-.45-1.4-.35-.7.45.7.85 1.5 1 1.5.3m-1.95-2.4c-1.15-2.05-7.85-10.35-8.5-10.55-.55-.2-.4.3.35 1.6 2.05 3.5 7.15 9.8 7.9 9.8.55 0 .6-.2.25-.85M276 620.75c0-.9-3.35-6.75-3.85-6.75-.35 0-.65.1-.65.25 0 .4 2.55 5.4 3.1 6.15.5.6 1.4.85 1.4.35m-4.15-8.1c-.45-.45-.95-.7-1.15-.55-.5.5.3 1.4 1.2 1.4.75 0 .75-.05-.05-.85m-3.35-7.15c0-.25-.35-.5-.75-.5s-.75.25-.75.5c0 .3.35.5.75.5s.75-.2.75-.5M266 600c0-.25-.35-.5-.75-.5s-.75.25-.75.5c0 .3.35.5.75.5s.75-.2.75-.5m-1.8-4.25c-.3-.8-1.7-1.05-1.7-.35 0 .65.55 1.1 1.3 1.1.4 0 .55-.3.4-.75m-.7-1.45c0-1.1-2.3-5.8-2.8-5.8-.85 0-.85-.05-.15 1.95.3.9.9 1.55 1.35 1.55.65 0 .7.1.2.4-.8.5-.25 2.1.7 2.1.4 0 .7-.1.7-.2m-2.5-6.8c0-.25-.35-.5-.75-.5s-.75.25-.75.5c0 .3.35.5.75.5s.75-.2.75-.5m-.75-1.85c-.15-.5-.9-2.85-1.65-5.25-.75-2.55-1.6-4.4-1.95-4.4s-.65.35-.65.75.25.75.55.75c.25 0 .35.25.2.5-.55.9 2.25 8.5 3.1 8.5.5 0 .65-.3.4-.85m-3.25-10.4c0-1.4-1.8-6.25-2.35-6.25-.35 0-.65.35-.65.75s.25.75.55.75c.25 0 .4.2.2.5-.5.8.35 3 1.2 3.05.5 0 .55.1.2.3-.9.35-.8 1.15.1 1.15.4 0 .75-.1.75-.25m-2.7-9.85c-.15-.65-.3-1.4-.3-1.75s-.35-.5-.75-.35c-.8.35-1.05 1.7-.25 1.7.25 0 .35.35.2.75-.2.5 0 .75.55.75.65 0 .8-.3.55-1.1m-36.8-222.45c1.15-.3 1.1-.35-.35-.4l-1.65-.05.1 100.4.15 100.35.25-100 .25-99.95zm30.5 175.8c0-.8-.3-1.25-.75-1.25s-.75.45-.75 1.25.3 1.25.75 1.25.75-.45.75-1.25m0-4.75c0-.55-.35-1-.75-1s-.75.45-.75 1 .35 1 .75 1 .75-.45.75-1m1.2-22.3c.55-1.5.35-2.1-.7-1.85-.65.15-1 .7-1 1.45 0 1.35 1.2 1.65 1.7.4m1.6-12.8c.3-2.95.25-3.4-.5-3.4-.45 0-.8.4-.8 1 0 .55.25 1 .5 1 .3 0 .5.25.5.5 0 .3-.35.5-.75.5-.9 0-1.05 2.3-.1 2.65.35.15.25.3-.25.3-.65.05-.9.45-.9 1.55 0 .85.25 1.5.5 1.5.3 0 .55.75.55 1.65.1 1.7.55-.95 1.25-7.25m1.3-6.65c.15-1.45.05-1.75-.7-1.75-.5 0-.9.35-.9.75s.25.75.5.75c.85 0 .55 1.4-.35 1.65-.7.2-.65.25.15.3.9.05 1.15-.3 1.3-1.7m2.3-10.8c.45-1.7.4-1.8-.5-1.55-.75.2-.85.35-.3.65.5.35.45.45-.2.45-.5 0-.9.35-.9.75s.25.75.5.75c.3 0 .5.4.55.9.05.95.2.6.85-1.95m4.6-17.05c0-.25-.4-.4-.85-.35-.55 0-.65.15-.25.3.9.35.75 1.15-.25 1.15-.75 0-.8.1-.15.5s.6.5-.1.5c-.5 0-.9.25-.9.5 0 .3.25.5.5.5.9 0 .55 1.5-.35 1.55-.55 0-.65.15-.25.3.9.35.75 1.15-.25 1.2-.55 0-.65.15-.25.3.3.1.6.6.65 1.05 0 .75 2.4-6.6 2.45-7.5m4.25-12.5c.25-1.05.15-1.4-.4-1.4-.95 0-2.75 4.6-1.95 4.9.9.3.7 1.1-.25 1.15-.55 0-.65.15-.25.3.9.35.75 1.15-.25 1.15-.75 0-.8.1-.15.5.6.4.6.5-.25.55-.55 0-.7.15-.35.3.9.35.75 1.15-.25 1.2-.55 0-.65.15-.25.3.3.1.6.6.65 1.05 0 .9 3.15-7.6 3.7-10m11.25-23.75c0-.35-.4-.65-.85-.65-.75 0-.8.1-.15.5.6.4.6.5-.25.5s-.85.1-.25.5.6.5-.25.5-.85.1-.25.5.6.5-.25.5-.85.1-.25.5c.65.4.6.5-.15.5s-.8.1-.25.7.85.35 1.75-1.35c.6-1.15 1.1-2.4 1.15-2.7m1.7-2.4q.3-.75-.75-.75c-.85 0-.9.1-.35.75.8.9.75.9 1.1 0m4.3-8.25c0-.25-.4-.5-.85-.5-.75 0-.8.1-.15.5.6.4.6.5-.25.5-.75 0-.85.15-.35.45s.4.5-.5.75c-.95.25-1 .4-.4.8s.6.5-.25.5-.85.1-.25.5c.65.4.6.5-.15.5s-.8.1-.25.7c.55.55.85.25 2-1.75.8-1.35 1.4-2.65 1.4-2.95m3.2-4.5c1.5-2.3 1.65-3 .45-3-.7 0-.75.1-.25.45.5.3.4.5-.5.75-.85.2-1 .4-.5.75.5.3.4.5-.5.75-.95.25-1 .4-.4.8s.6.5-.25.5-.85.1-.25.5l.8.5c.05 0 .65-.9 1.4-2m45.7-50.3c-.2-.15-.8-.15-1.35.05-.85.25-.9.45-.4 1s.7.55 1.3-.05c.4-.35.6-.8.45-1m-71.15.3c.4-.65-.75-.65-1.75 0-.6.4-.55.5.35.5.6 0 1.25-.2 1.4-.5m9 .05c1.9-.4 1.85-.45-1.1-.5-1.7 0-3.25.2-3.4.45-.35.6 1.7.6 4.5.05M280.4 319c0-7.85-.2-14.8-.4-15.5s-.4 6.85-.4 16.75c.05 10.45.2 16.95.4 15.5.25-1.35.4-8.9.4-16.75m75.35 6.5c.55-.9-.25-1.55-1.3-1-.55.3-.85.75-.7 1.05.4.6 1.6.6 2-.05m4.75-3c0-.65-.65-.65-2.2.05-.7.35-1.1.85-.95 1.25.2.55.5.55 1.7-.1.8-.4 1.45-.95 1.45-1.2m3.8-1.7c.5-.4.8-.9.6-1.1-.5-.45-3.45.8-3.1 1.35.4.65 1.35.55 2.5-.25m89.1-25.6c1.6-.45 1.35-1.2-.4-1.2q-1.5 0-1.5.75c0 .85.2.9 1.9.45m42.3-.95c-.2-.5-1-.75-2.5-.75-2.7 0-2.95.85-.3 1.15 1 .1 2.1.2 2.45.25s.5-.2.35-.65M232.9 869.6c-1.35-.8-1.9-2.1-.9-2.1 1.2 0 3 1.25 3 2.1 0 1.1-.35 1.1-2.1 0m-67.5-39c-1.55-.95-1.85-2.1-.5-2.1 1.2.05 2.6 1.2 2.6 2.2s-.4 1-2.1-.1m-10.75-6.25c-2.45-1.45-3.45-2.85-2.1-2.85 1.25 0 5.45 2.8 5.45 3.65 0 1.15-.3 1.1-3.35-.8m-8.5-5c-2.25-1.4-3.45-2.9-2.25-2.85 1.05.05 5.35 2.85 5.5 3.65.25 1.15-.2 1.05-3.25-.8M75.9 778.6c-1.35-.8-1.9-2.1-.9-2.1 1.2 0 3 1.25 3 2.1 0 1.1-.3 1.1-2.1 0m-10.5-12.35c-.1-3.55-.25-120.3-.3-259.35L65 254.05l1.7-1.3 1.7-1.3 1.3 1.2c.7.65 2.7 1.95 4.4 2.85 1.75.95 9.9 5.65 18.15 10.5s17.6 10.25 20.75 12c5.1 2.85 8.95 5.15 18.95 11.3 1.5.95 3.35 1.7 4.1 1.7h1.4v220.45c.05 121.25-.1 220.8-.25 221.25-.5 1.25-1.2.95-1.2-.55 0-.8-.2-1.15-.4-.9-.2.3-.9.8-1.6 1.2s-4.05 2.35-7.5 4.3c-3.45 2-10.5 6.15-15.75 9.25-11.2 6.65-24.3 14.2-30.25 17.5-2.35 1.3-6.15 3.5-8.5 4.95-2.35 1.4-4.65 2.55-5.1 2.55s-.9.4-1.05.9c-.1.45-.3-2.05-.45-5.65"/>
    <path d="M470.35 641.15c-.65-.6-.35-1.15.65-1.15.65 0 .9-.25.7-.75-.25-.55-1.05-.75-3-.75-3 0-3.75.95-.8 1.05q1.725.075.75.3c-.65.1-1.15.45-1.15.7s-1 .45-2.25.45c-1.8 0-2.25-.15-2.25-.85s-.1-.75-.45-.25c-.3.55-1.3.6-4.25.35-3.25-.3-3.8-.5-3.8-1.3 0-.7.35-.95 1.25-.95.7 0 1.25-.2 1.25-.5 0-.55-.1-.55-7.5-2-7-1.4-14.6-3.6-19.9-5.7-5.1-2.05-15.25-7-17.2-8.4-.75-.5-1.85-1-2.4-1.05s-1-.2-1-.4c0-.15-.9-.9-2-1.65-2.7-1.75-2.55-.7.15 1.25 5.95 4.35 19.3 10.75 28.45 13.75 2.4.75 4.3 1.45 4.2 1.55-.3.35-7.2-1.75-11.6-3.55-5.15-2.05-15.35-7-17.3-8.35-.7-.55-1.65-.95-2.1-.95s-1.25-.45-1.8-1-1.55-1-2.25-1c-.85 0-2.25-1-4.5-3.25-1.8-1.8-3.65-3.25-4.2-3.25-.5 0-1.05-.45-1.2-1-.15-.6-.7-1-1.3-1s-1.2-.4-1.4-.85c-.4-1.3-10.7-11.65-12-12.2-.65-.25-1.15-.85-1.15-1.4s-.65-1.5-1.5-2.15c-.8-.6-1.5-1.4-1.5-1.75 0-.4-.35-.8-.75-.95-.4-.2-.75-.6-.75-.95 0-.3-.55-1.2-1.25-1.95s-1.25-1.55-1.25-1.85c0-.25-.2-.45-.5-.45-.25 0-.5-.35-.5-.75s-.2-.75-.5-.75c-.25 0-.5-.35-.5-.75s-.45-.95-1-1.25-1-.85-1-1.2c0-.4-.35-.95-.75-1.3s-.75-1-.75-1.5-1.45-3.9-3.2-7.55c-3.2-6.75-6.45-14.6-7.1-17.25-.2-.8-.65-1.75-1-2.1s-.75-1.7-.95-3c-.15-1.3-.6-3.35-1-4.6-.8-2.6-2.85-16.8-2.75-18.85.05-.8.05-1.5 0-1.65s-.15-5.65-.2-12.25c-.15-12.4.6-20.7 2.45-27.25.4-1.5.75-3.4.75-4.25s.2-1.75.45-2c.25-.3 1.05-2.65 1.8-5.25 1.7-5.8 6.25-17.6 8.45-22 .95-1.8 2.05-4.1 2.5-5.1.4-1.05 1-1.9 1.3-1.9.25 0 .5-.35.5-.75 0-.95 2.9-5.55 4.6-7.25.65-.7 2.3-2.7 3.65-4.5 2.8-3.7 10.75-12.65 11.5-12.95.25-.1 2.05-1.8 4-3.8 6.75-6.85 25.35-18.1 36.5-22.05 2.2-.75 4.1-1.6 4.15-1.8.1-.2.8-.4 1.6-.4.75 0 2.9-.45 4.7-1.05 4.4-1.3 11.3-2.8 17.55-3.75 4.95-.75 34.35-1.8 34.6-1.25.1.15 1.3.2 2.7.1s2.7.05 2.9.35c.15.25 2.45.75 5.05 1.1 11.25 1.4 11.5 1.45 11.5 2.8 0 1.05-.15 1.2-1.35.9-1-.25-1.25-.15-.9.2s.4 41.45.25 122.2l-.25 121.6-2.25.65c-1.25.4-4.4 1.05-7 1.45-6 1-6.05 1-5.7 1.95.2.45.65.7 1 .55.45-.15.7.1.7.65 0 .85-.55 1-4.55 1.3-3.6.3-4.65.2-5-.3-.3-.5-.15-.75.55-.85.55-.1 1-.35 1-.6 0-.7-1.65-.95-3.75-.55l-2 .4 1.65.7c2.55 1.05 2.05 1.95-1.15 1.95-1.5 0-2.75-.2-2.75-.5s-1.5-.5-3.5-.5-3.5.2-3.5.5c0 .55-4.15.7-4.65.15m13.15-1.6c0-.5-3.95-1-6.35-.8-.9.05-2.1.15-2.65.2-.55 0-1 .3-1 .55 0 .3 2 .5 5 .5 2.75 0 5-.2 5-.45m-19-.75c0-1.05-.85-1.45-2.3-1.1-1.6.4-1.55 1.2.2 1.45.75.1 1.5.25 1.75.3.2 0 .35-.25.35-.65m30.45-.1c.45-.4-.65-1.2-1.65-1.2-1.4 0-1.8.4-1.45 1.3.15.45.7.6 1.6.4.7-.2 1.4-.4 1.5-.5m-34.95-.45c0-.45-.45-.75-1.25-.75-1.55 0-1.65.85-.1 1.15.6.1 1.15.25 1.25.3.05 0 .1-.3.1-.7m-58.8-23.45c-1.1-1.7-4.35-4.15-4.1-3.15.1.6 4.1 4.2 4.8 4.3.05.05-.25-.5-.7-1.15m-5.85-5.2c-.75-.7-1.35-1.05-1.35-.7 0 .8 2 2.8 2.4 2.4.15-.2-.3-.95-1.05-1.7m-7.75-7.25c-3.35-3.35-6.1-5.8-6.1-5.45 0 .95 11.4 12.35 11.85 11.9.2-.2-2.4-3.1-5.75-6.45m-6.6-6.75c0-.45-1.8-2.2-2.95-2.85-.4-.25-.05.4.75 1.4 1.4 1.8 2.2 2.3 2.2 1.45m-5.75-7.3c-.5-.7-1.1-1.3-1.35-1.3s0 .7.6 1.55c1.3 1.8 1.95 1.6.75-.25m-10.2-17.35c-3.6-7.55-6.9-15.6-7.4-18-.15-.8-.45-1.45-.7-1.45s-.35.3-.2.65c2.85 9.15 6.05 17 9.5 23.1 3.05 5.5 2.5 3.35-1.2-4.3M355 544.15c-.55-.85-.55-.85-.3 0 .15.5.35 1.3.35 1.75.05.75.1.75.3 0 .1-.5-.05-1.25-.35-1.75M352.75 529c-.2-.6-.45-.95-.6-.85-.15.15-.1.75.1 1.35s.45.95.6.85c.15-.15.1-.75-.1-1.35m-.7-6.15c-.65-.65-.75.75-.15 2.65.35 1.2.35 1.15.5-.45.1-.9-.05-1.9-.35-2.2m-.1-9.95c-.05-7.5-.1-7.85-.55-4.65-.45 3.1-.15 12.75.4 12.75.1 0 .15-3.65.15-8.1m2.75-28.4c.2-1.5.15-1.8-.15-1-.6 1.85-1.1 5.45-.6 4.25.25-.55.55-2 .75-3.25m5.7-18.75c1.3-3.55 3.5-8.8 4.95-11.6 1.4-2.85 2.3-5 2.05-4.85-1.55 1-8.65 18-10.85 26.2-1.45 5.15-1.25 5.65.25.75.65-2.2 2.3-6.9 3.6-10.5m17.9-32.25c1.35-1.8 4.3-5.4 6.6-8l4.2-4.75-4.3 4.45c-4.1 4.2-9.8 11.3-9.8 12.1 0 .5.3.15 3.3-3.8m13.9-14.95c1.7-1.85.55-1.6-1.25.25-1.05 1.15-1.3 1.65-.7 1.3.55-.25 1.45-1 1.95-1.55m20.85-15.7c.65-.5.3-.4-.85.25-1.1.65-2.6 1.55-3.25 2.05s-.3.4.85-.25c1.1-.65 2.6-1.55 3.25-2.05m11.45-6.1c0-.15-2.25.85-5 2.25s-5 2.6-5 2.75 2.25-.85 5-2.25 5-2.6 5-2.75m6.35-2.25c2.15-.8 3.65-1.45 3.3-1.5-.7 0-8.75 2.9-9.15 3.35-.35.35 1.1-.1 5.85-1.85m10.4-3.2c12.85-3.65 24.05-5 40.15-4.7 6.7.1 11.75.05 11.25-.15-2.45-.9-21.3-.9-29.4.05-9.3 1-25.25 4.55-27.75 6.1-.95.55-.3.4 5.75-1.3m63.75-3.1c-2.8-.7-9.3-1.55-9.75-1.3-.6.4 5.6 1.45 8.5 1.45 1.1.05 1.65-.05 1.25-.15"/>
    <path d="M441.25 635.5c-1.25-.55.05-.55 1.75 0 1 .3 1.05.4.25.4-.55 0-1.45-.15-2-.4M267.5 422.15c.05-.25.35-.95.75-1.65l.7-1.25.05 1.65c0 1.1-.25 1.6-.75 1.6-.4 0-.75-.15-.75-.35m48.95-67.85c.95-1 1.8-1.8 1.9-1.8.6 0-1.05 2-2.2 2.75-1.3.8-1.25.75.3-.95m124.7-57.65c.45-.1 1.25-.1 1.75 0 .45.15.05.25-.9.25s-1.35-.1-.85-.25m31.25-2.5c.6-.1 1.5-.1 2 0 .45.15-.05.25-1.15.2-1.1 0-1.5-.1-.85-.2m4 0c.6-.1 1.6-.1 2.25 0 .6.1.1.2-1.15.2s-1.75-.1-1.1-.2m267-14.5c.6-.1 1.6-.1 2.25 0 .6.1.1.2-1.15.2s-1.75-.1-1.1-.2m193.55-38.7-1.2-1 1.5.85c1.95 1.2 2 1.2 1.4 1.2-.3 0-1.05-.45-1.7-1.05M683.15 93.5c-.9-.55-1.65-1.1-1.65-1.25 0-.1.8.25 1.75.8.95.6 1.75 1.15 1.75 1.25 0 .3-.15.25-1.85-.8"/>
  </g>
  <g fill="#fff">
    <path d="M502.4 1023.6c-.05-.2-2.3-1-4.9-1.75-2.6-.8-6-2.05-7.5-2.8-4.65-2.35-28.45-16.4-28.25-16.65.15-.15-.05-.25-.4-.25-.55 0-8-4.25-34.2-19.55-6.1-3.55-11-6.6-10.9-6.8.15-.15.1-.2-.05-.05-.45.3-3.2-1.15-3.2-1.7 0-.2-.3-.4-.6-.4-1.05 0-23.4-13.2-23.4-13.8 0-.25-.15-.4-.3-.2-.45.4-3.2-1.05-3.2-1.7 0-.3-.2-.4-.4-.25-.6.35-9.65-4.95-9.2-5.4.2-.2.1-.3-.15-.25-.95.25-2.75-.6-2.45-1.15.2-.3.15-.4-.1-.25-.8.45-30.25-16.7-29.85-17.35.2-.25.1-.3-.2-.15-.3.2-3.2-1.25-6.45-3.2-3.3-1.95-9-5.3-12.7-7.4-8.65-4.95-40.35-23.4-74.75-43.45-14.85-8.7-27.85-16.25-28.9-16.85-1-.6-1.7-1.25-1.5-1.5.25-.2.15-.25-.2-.1-.3.2-2.45-.75-4.75-2.1-2.25-1.35-6.7-3.9-9.75-5.65-3.1-1.8-5.45-3.45-5.25-3.65.2-.25.1-.3-.2-.1-.25.15-1.4-.2-2.5-.85-44.95-25.85-48.2-27.75-48.2-28.4 0-.25-.2-.35-.5-.15-.25.15-.9-.1-1.4-.6s-1.25-.95-1.65-1.05-2.75-1.35-5.2-2.85c-2.5-1.45-7.55-4.4-11.25-6.5-3.7-2.15-7.7-4.45-8.85-5.1-1.2-.7-2.15-1.4-2.15-1.6s-.3-.4-.65-.4c-1.15 0-14.85-8.25-14.85-8.95 0-.85-.25-.95 11 5.15 4.25 2.35 10 5.65 12.75 7.4 2.75 1.7 5.8 3.55 6.75 4.15.95.55 2.95 1.75 4.4 2.6 1.4.85 2.6 1.95 2.65 2.4 0 .55.15.6.3.25.35-.9 2.15.15 2.15 1.25 0 .65.1.7.4.2.55-.8 7.9 3.25 31.85 17.4 8.25 4.9 8.05 4.75 17 9.75 3.85 2.15 10.15 5.75 14 8s9.6 5.6 12.75 7.4 11.4 6.55 18.25 10.65c6.9 4.05 15.9 9.3 20 11.7 4.15 2.4 9.55 5.55 12 7 2.5 1.45 9.8 5.65 16.25 9.4 6.45 3.7 12 6.9 12.25 7.1.3.2 5.1 3 10.75 6.25 5.65 3.2 11.25 6.5 12.45 7.3 1.15.85 3.3 2.05 4.7 2.8 3.85 1.95 23.3 13.1 25.7 14.7 3 2.1 13.75 8.4 18.15 10.65 2.05 1.1 6.35 3.55 9.5 5.45 9.1 5.55 22.05 13.1 30.75 18 4.4 2.45 10.05 5.7 12.5 7.2 2.5 1.55 5.2 3.15 6 3.65.85.45 2.65 1.55 4 2.35 4.65 2.8 15.45 9 20.75 11.95 2.9 1.55 8.95 5.1 13.5 7.85 8.6 5.15 21.25 12.45 24.9 14.3 2.8 1.4 13.7 4.55 15.9 4.55 1.5 0 1.7.15 1.7 1.25 0 1.15-.15 1.25-2.45 1.25-1.35 0-2.55-.15-2.65-.4m14.6-.7c0-1.1.3-1.25 3.5-1.8 4.65-.8 6-.75 6 .1 0 .45-1.2 1-3.35 1.55-6.15 1.5-6.15 1.5-6.15.15m11-2.55c0-.8.55-1.35 2.15-1.95 1.15-.5 2.5-.9 2.95-.9s.9-.35 1.1-.75c.15-.4.75-.75 1.3-.75s1-.2 1-.5c0-.25.35-.5.75-.5s.75-.2.75-.5c0-.25.35-.5.75-.5s1.2-.45 1.75-1 1.65-1 2.45-1c1 0 1.5-.3 1.7-1 .15-.6.85-1.1 1.75-1.3.85-.2 1.65-.6 1.8-1s.7-.7 1.25-.7c.5 0 1.05-.35 1.25-.75.15-.4.6-.75 1.05-.75.4 0 1.2-.45 1.75-1 1-1 4.5-1.45 4.5-.55 0 .25-2.65 2.05-5.85 3.95-7.4 4.35-8.95 5.15-9.35 4.75-.15-.2-.3-.05-.3.25 0 .7-2.75 2.2-3.2 1.75-.15-.2-.3-.05-.3.25 0 .65-5.45 3.85-5.85 3.45-.15-.2-.6.05-1 .45-.45.4-1.1.65-1.45.5-.4-.15-.7-.1-.7.15s-.45.55-1 .7c-.75.2-1 0-1-.8m35.6-19.7c.1-1 .45-1.45 1.3-1.55.6-.1 1.1-.4 1.1-.65s.35-.45.75-.45.75-.2.75-.5c0-.25.8-.5 1.75-.5s1.75.2 1.75.5c0 .6-1.75 1.55-2.2 1.15-.15-.15-.3-.1-.3.2 0 .5-4 3.15-4.75 3.15-.15 0-.25-.6-.15-1.35m11.9-6.9c0-1.4 1.25-2.25 3.45-2.25 2.15 0 1.95.7-.65 2.2-2.75 1.6-2.8 1.6-2.8.05m6.1-3.6c.1-1 .45-1.45 1.3-1.55.6-.1 1.1-.4 1.1-.65s.35-.45.75-.45.75-.2.75-.5c0-.25.45-.5.95-.5s1.05-.35 1.25-.75c.15-.45.9-.75 1.8-.75.95 0 1.5-.25 1.5-.7 0-1 7.7-5.3 9.5-5.3.8 0 1.5.2 1.5.5 0 .6-1.75 1.55-2.2 1.15-.15-.15-.3-.05-.3.2 0 .6-11.35 7.3-12.35 7.3-.35 0-.65.2-.65.4 0 .35-4.15 2.95-4.75 2.95-.15 0-.25-.6-.15-1.35m24-14c.15-1.2.4-1.4 2.05-1.55 2.3-.2 2.35.5.15 1.85-2.15 1.35-2.4 1.3-2.2-.3m5.9-3.35c0-.85.55-1.5 1.8-2.25 1.75-1.05 4.7-1.45 4.7-.6 0 .5-2.05 1.95-3.05 2.15-.35.1-1.05.55-1.55 1.05-1.25 1.2-1.9 1.05-1.9-.35m9.5-5.55c0-1.3 2.05-2.75 4-2.75.55 0 1-.3 1-.6 0-.95 4.65-3.4 6.4-3.4 1.2 0 1.55-.25 1.7-1.1.1-.65.55-1.2 1.15-1.35.55-.1 1.2-.45 1.4-.85.45-.8 3.85-.95 3.85-.2 0 .55-8.45 5.65-9.35 5.65-.35 0-.65.2-.65.4 0 .3-8.7 5.45-9.25 5.45-.15 0-.25-.55-.25-1.25m21.6-12.6c.15-1.2.4-1.4 2.05-1.55 2.3-.2 2.35.5.15 1.85-2.15 1.35-2.4 1.3-2.2-.3m16.5-9.5c.1-.9.5-1.45 1.15-1.6.55-.1 1.2-.45 1.4-.85s.75-.7 1.1-.7c.4 0 1.2-.45 1.75-1s1.35-1 1.75-1 1.2-.45 1.75-1c1.05-1.05 4.5-1.45 4.5-.5 0 .6-1.75 1.55-2.2 1.15-.15-.15-.3-.05-.3.25 0 .7-2.75 2.2-3.2 1.75-.15-.2-.3-.1-.3.2 0 .5-6.5 4.65-7.25 4.65-.15 0-.25-.6-.15-1.35m18-10.5c.1-.9.5-1.45 1.15-1.6.55-.1 1.2-.45 1.4-.85s.8-.7 1.3-.7c.55 0 1.05-.35 1.25-.75.15-.45.9-.75 1.8-.75q1.5 0 1.5-.75c0-.4.45-.95.95-1.25 1.25-.65 4.05-.65 4.05 0 0 .6-1.75 1.55-2.2 1.15-.15-.15-.3-.1-.3.2 0 .45-10.05 6.65-10.75 6.65-.2 0-.25-.6-.15-1.35m18-10.5c.1-.9.5-1.45 1.15-1.6.55-.1 1.2-.45 1.4-.85s1.05-.7 1.85-.7q1.5 0 1.5-.75c0-.4.45-.95.95-1.25 1.25-.65 4.05-.65 4.05 0 0 .6-1.75 1.55-2.2 1.15-.15-.15-.3-.1-.3.2 0 .45-7.55 5.15-8.25 5.15-.2 0-.25-.6-.15-1.35m13-7.5c.1-.9.5-1.45 1.05-1.55s1.35-.6 1.9-1.15c.5-.5 1.4-.95 1.9-.95s1.05-.35 1.25-.75c.15-.4.75-.75 1.3-.75s1-.2 1-.5c0-.25.35-.5.75-.5s.75-.2.75-.5c0-.25.8-.5 1.75-.5s1.75.2 1.75.5c0 .6-1.75 1.55-2.2 1.15-.15-.15-.3-.1-.3.2 0 .65-4.35 3.3-5.35 3.3-.35 0-.65.2-.65.4 0 .35-4.15 2.95-4.75 2.95-.15 0-.25-.6-.15-1.35m19.5-11.5c.15-1.2.4-1.4 2.05-1.55 2.3-.2 2.35.5.15 1.85-2.15 1.35-2.4 1.3-2.2-.3m6-3.5c.15-1.2.4-1.4 2.05-1.55 2.3-.2 2.35.5.15 1.85-2.15 1.35-2.4 1.3-2.2-.3m4.9-2.6c0-1.1.45-1.55 2.85-2.8 1.55-.85 3.3-1.9 3.9-2.4.55-.5 1.6-1.05 2.35-1.2s1.45-.55 1.6-.95.9-.7 1.75-.7c1 0 1.5-.3 1.7-1 .15-.6.7-1 1.25-1s1.1-.35 1.3-.75c.3-.85 3.8-1.1 3.8-.25 0 .5-8.7 5.8-10 6.1-.4.1-.95.4-1.25.75-.25.35-.8.65-1.2.75s-1.15.55-1.65 1.05-1.15.75-1.4.6c-.3-.2-.5-.1-.5.2 0 .25-1 1.05-2.25 1.7l-2.25 1.3zm22.6-13.4c.1-1.15.4-1.45 1.7-1.55 1.1-.1 1.7-.45 1.85-1.15.2-.65.7-.95 1.75-.95s1.55-.3 1.75-1c.2-.75.7-1 2.1-1 1.15 0 1.75.2 1.65.55-.2.55-9.75 6.4-10.55 6.45-.25 0-.35-.6-.25-1.35m13-7.5c.15-1.2.4-1.4 2.05-1.55 2.3-.2 2.35.5.15 1.85-2.15 1.35-2.4 1.3-2.2-.3m9.5-5.5c.1-.9.5-1.45 1.15-1.6.55-.1 1.2-.45 1.4-.85s1.05-.7 1.8-.7c1 0 1.5-.3 1.7-1 .15-.6.7-1 1.25-1s1.1-.35 1.3-.75c.3-.85 3.8-1.1 3.8-.25 0 .4-11.55 7.5-12.25 7.5-.15 0-.25-.6-.15-1.35m14.5-8.5c.1-1.15.4-1.45 1.7-1.55 1.1-.1 1.7-.45 1.85-1.15.2-.7.7-.95 2.05-.95 1 0 1.8.2 1.8.5 0 .4-6.55 4.5-7.25 4.5-.15 0-.25-.6-.15-1.35m9.5-5.5c.1-.9.5-1.45 1.15-1.6.55-.1 1.2-.45 1.4-.85.45-.75 3.85-1 3.85-.25 0 .45-5.55 4.05-6.2 4.05-.2 0-.3-.6-.2-1.35m7-4c.1-1.15.4-1.45 1.7-1.55 1.1-.1 1.7-.45 1.85-1.15.2-.65.7-.95 1.75-.95s1.55-.3 1.75-1c.15-.6.7-1 1.25-1s1.1-.35 1.3-.75c.15-.45.9-.75 1.75-.75 1 0 1.5-.3 1.7-1 .2-.75.7-1 2.1-1 1.15 0 1.75.2 1.65.55-.2.6-15.75 9.9-16.55 9.95-.25 0-.35-.6-.25-1.35m19-11c.15-1.2.4-1.4 2.05-1.55 2.3-.2 2.35.5.15 1.85-2.15 1.35-2.4 1.3-2.2-.3m8.5-5c.1-1 .55-1.5 1.65-1.9.85-.25 1.7-.75 1.9-1.1.45-.75 3.85-.9 3.85-.2 0 .5-2.8 2.35-3.95 2.65-.4.1-1.15.55-1.65 1.05-1.3 1.25-2 1.05-1.8-.5m13-7.5c.1-.9.5-1.45 1.05-1.55s1.35-.6 1.9-1.15c.5-.5 1.3-.95 1.7-.95s1.2-.45 1.75-1 1.45-1 1.95-1 1.05-.35 1.25-.75c.3-.8 3.8-1.1 3.8-.3 0 .6-3.4 2.7-4.3 2.7-.4 0-.7.2-.7.4 0 .6-2.8 2-3.2 1.6-.15-.2-.3-.1-.3.2 0 .5-4 3.15-4.75 3.15-.15 0-.25-.6-.15-1.35m16.9-9.85c0-.9.55-1.55 2.3-2.5 1.3-.7 2.85-1.3 3.45-1.3.7 0 1.25-.35 1.4-1 .2-.75.7-1 1.8-1 1.05 0 1.55-.25 1.55-.75 0-.4.45-.95.95-1.25 1.25-.65 4.05-.65 4.05 0 0 .6-1.75 1.55-2.2 1.15-.15-.15-.3-.1-.3.2 0 .45-11.95 7.65-12.7 7.65-.15 0-.3-.55-.3-1.2m16.6-9.65c.1-1.15.4-1.45 1.7-1.55 1.1-.1 1.7-.45 1.85-1.15.2-.7.7-.95 2.05-.95 1 0 1.8.2 1.8.5 0 .4-6.55 4.5-7.25 4.5-.15 0-.25-.6-.15-1.35m8-4.5c.15-1.2.4-1.4 2.05-1.55 2.3-.2 2.35.5.15 1.85-2.15 1.35-2.4 1.3-2.2-.3m6-3.5c.15-1.2.4-1.4 2.05-1.55 2.3-.2 2.35.5.15 1.85-2.15 1.35-2.4 1.3-2.2-.3m13-7.5c.15-1.2.4-1.4 2.05-1.55 2.3-.2 2.35.5.15 1.85-2.15 1.35-2.4 1.3-2.2-.3M99.4 792.2c-1.65-.85-1.9-2.25-.4-1.85 1.15.3 2.15 1.4 1.9 2.1-.1.25-.75.15-1.5-.25m824.7-1.05c.15-1.2.4-1.4 2.05-1.55 2.3-.2 2.35.5.15 1.85-2.15 1.35-2.4 1.3-2.2-.3m-833.85-4.2c-3.85-2.25-8.5-5-10.35-6.05-1.9-1.1-3.4-2.2-3.4-2.45 0-.3-.15-.4-.35-.3-.25.15-2.65-1.05-5.4-2.65-4-2.3-5-3.15-5.1-4.05-.05-1.15-.05-1.15.2-.05.15.85.45 1.05 1.3.85.8-.2 2.15.35 4.45 1.85 2.9 1.85 7.25 4.4 11.85 6.85 3.3 1.8 7.05 4.65 7.05 5.45 0 .65.1.7.45.15s.65-.45 1.5.4c.55.55 1.05.95 1.05.8s.9.2 2 .75 2 1.35 2 1.75-.05.75-.15.75c-.05 0-3.25-1.85-7.1-4.05m838.35 1.7c.15-1.2.4-1.4 2.05-1.55 2.3-.2 2.35.5.15 1.85-2.15 1.35-2.4 1.3-2.2-.3m10.5-6c.1-1.15.4-1.45 1.7-1.55 1.1-.1 1.7-.45 1.85-1.15.15-.55.7-.95 1.25-.95s1.1-.35 1.3-.75c.15-.4.7-.75 1.25-.75.5 0 1.05-.35 1.25-.75.15-.4.7-.75 1.25-.75.5 0 1.05-.35 1.25-.75.15-.4.7-.75 1.25-.75.5 0 1.05-.35 1.25-.75.15-.45.9-.75 1.75-.75 1.05 0 1.5-.3 1.7-1.05.15-.55.75-1.15 1.3-1.3 1.2-.3 1.4-1.15.3-1.15-.6 0-.75-.85-.75-4.75s.15-4.75.75-4.75c.55 0 .75-.6.75-2.5s-.2-2.5-.75-2.5c-.6 0-.75-.8-.75-4.2 0-3.6.15-4.25.9-4.45.8-.2.8-.25 0-.3-1.15-.05-1.25-2.55-.15-2.55.45 0 .75-.45.75-1.25s-.3-1.25-.75-1.25c-.6 0-.75-.75-.75-3.75s.15-3.75.75-3.75c.5 0 .75-.55.75-1.75s-.25-1.75-.75-1.75c-.6 0-.75-.65-.75-2.75s.15-2.75.75-2.75.75-.8.75-4.25-.15-4.25-.75-4.25c-.5 0-.75-.55-.75-1.75s.25-1.75.75-1.75c.6 0 .75-.65.75-2.75s-.15-2.75-.75-2.75-.75-.7-.75-3.25.15-3.25.75-3.25c.55 0 .75-.6.75-2.5s-.2-2.5-.75-2.5c-.4 0-.75-.2-.75-.5 0-.25.35-.5.75-.5.65 0 .75-2.45.75-19.25 0-18-.05-19.25-.85-19.3-.75 0-.75-.1.1-.4l1-.4-1-.25c-.8-.25-.85-.3-.1-.35.45 0 .85-.35.85-.75s-.4-.85-.85-.95c-.85-.2-.85-.25 0-.3.45 0 .85-.4.85-.8s-.4-.75-.85-.8c-.75 0-.75-.1.1-.4l1-.4-1-.25c-.8-.25-.85-.3-.1-.35.45 0 .85-.4.85-.8s-.4-.75-.85-.8c-.75 0-.75-.1.1-.45s.85-.45.15-.45c-1.1-.05-1.2-1.55-.15-1.55.65 0 .75-1.1.75-6.75s-.1-6.75-.75-6.75c-1.15 0-1-3 .15-3.05.7 0 .7-.1-.15-.45s-.85-.45-.1-.45c1.05-.05 1.15-1.55.1-1.55-.4 0-.75-.45-.75-1s.35-1 .75-1c1.05 0 .95-1.5-.1-1.55-.75 0-.75-.1.1-.45s.85-.45.15-.45c-1.1-.05-1.2-1.05-.15-1.05.65 0 .75-2.7.75-21.5s-.1-21.5-.75-21.5c-1.15 0-1-3.35.15-3.65.8-.2.8-.25 0-.3-1.1-.05-1.2-1.55-.15-1.55.6 0 .75-.65.75-2.75 0-2.25-.15-2.75-.85-2.8-.75 0-.75-.1.1-.45s.85-.45.15-.45c-.75-.05-.9-.55-.9-2.8 0-2.1.15-2.75.75-2.75q.75 0 .75-1.5t-.75-1.5c-1.05 0-.95-.9.15-1.15.8-.2.8-.25 0-.3s-.9-.65-.9-4.8c0-3.9.15-4.75.75-4.75q.75 0 .75-1.5t-.75-1.5c-.6 0-.75-.85-.75-4.5s.15-4.5.75-4.5c.5 0 .75-.55.75-1.75s-.25-1.75-.75-1.75c-.6 0-.75-.7-.75-3.25s.15-3.25.75-3.25.75-.65.75-2.75-.15-2.75-.75-2.75c-.55 0-.75-.6-.75-2.25s.2-2.25.75-2.25c.6 0 .75-.75.75-3.75 0-3.2-.1-3.75-.85-3.8-.75 0-.75-.1.1-.45s.85-.45.15-.45c-.75-.05-.9-.55-.9-2.8 0-2.1.15-2.75.75-2.75.65 0 .75-4.25.75-35.25 0-33.2-.05-35.25-.85-35.3-.75 0-.75-.1.1-.4l1-.4-1-.25c-.8-.25-.85-.3-.1-.35.7-.05.85-.55.85-3.3 0-2.55-.15-3.25-.75-3.25-.4 0-.75-.35-.75-.75s.35-.75.75-.75c.45 0 .75-.45.75-1.25s-.3-1.25-.75-1.25c-.4 0-.75-.2-.75-.5 0-.25.35-.5.75-.5.6 0 .75-.85.75-4.45 0-3.85-.1-4.5-.85-4.7-.85-.2-.85-.25 0-.3.8-.05.85-1.8.85-29.05 0-25.45-.1-29-.75-29-.6 0-.75-.7-.75-3.45 0-2.9.15-3.5.9-3.7.8-.2.8-.25 0-.3-.5 0-.9-.35-.9-.75s.4-.85.9-.95c.8-.2.8-.25 0-.3s-.9-.6-.9-3.8c0-3 .15-3.75.75-3.75 1.1 0 .95-2.35-.1-2.65-.85-.2-.85-.25 0-.3.45 0 .85-.4.85-.8s-.4-.75-.85-.8c-.75 0-.75-.1.1-.45s.85-.45.15-.45c-.5-.05-.9-.35-.9-.75s.4-.85.9-.95c.8-.2.8-.25 0-.3-1.1-.05-1.2-1.05-.15-1.05q.75 0 .75-1.5t-.75-1.5c-1.05 0-.95-1.4.15-1.65.8-.2.8-.25 0-.3-1.1-.05-1.2-1.05-.15-1.05.65 0 .75-1.9.75-13.95 0-12.9-.05-14-.85-14.2-.85-.2-.85-.25 0-.3.75-.05.85-.7.85-6.05 0-5-.1-6-.75-6-1.05 0-.95-1 .15-1.05.7 0 .7-.1-.15-.45l-1-.45 1-.05 1-.05-1-.4-1-.4 1-.25c.85-.25.85-.3.1-.35-.8-.05-.85-.8-.75-10.4.15-9.85.1-10.45-.85-11.35-.55-.5-.2-.35.75.35l1.75 1.25v518.75l-9.5 5.65c-5.2 3.15-9.7 5.7-9.9 5.7-.25 0-.35-.6-.25-1.35m-873.95-28.9c0-1.1.1-1.5.2-.85.1.6.1 1.5 0 2-.15.45-.25-.05-.2-1.15M65.1 502.7 65 254.15l1.15-.95c1.1-.95 1.1-.95.25.1-.85.95-.9 13.75-1.05 249.5l-.1 248.45zm678.15 242.8c-.4-.7.2-1.6.95-1.35.35.15.5-.45.35-1.95-.1-1.45-.4-2.2-.85-2.2-.4 0-.7-.5-.7-1.25 0-.8.3-1.25.75-1.25.6 0 .75-.75.75-3.75s-.15-3.75-.75-3.75c-.45 0-.75-.45-.75-1.25s.3-1.25.75-1.25c.6 0 .75-.7.75-3.25s-.15-3.25-.75-3.25c-.65 0-.75-2.45-.75-19.25 0-15.75.1-19.25.65-19.25.4 0 .95-.55 1.25-1.25l.6-1.25 29.1.25c18.1.2 29.2.45 29.3.75.3.85 2.5.55 2.75-.35.2-.85.25-.85.3 0 0 .45.4.85.8.85.65 0 .75-10.1.75-88s-.1-88-.75-88c-.5 0-.75-.55-.75-1.75s.25-1.75.75-1.75c.65 0 .75-2.85.75-22.75s-.1-22.75-.75-22.75c-.45 0-.75-.45-.75-1.25s.3-1.25.75-1.25c.65 0 .75-1.6.75-11.5s-.1-11.5-.75-11.5c-.4 0-.75-.2-.75-.5 0-.25.35-.5.75-.5.5 0 .75-.55.75-1.75s-.25-1.75-.75-1.75c-.4 0-.75-.2-.75-.5 0-.25.35-.5.75-.5s.75-.35.75-.75-.35-.75-.75-.75c-.5 0-.75-.55-.75-1.75s.25-1.75.75-1.75c.65 0 .75-3.65.75-29.75 0-28-.05-29.75-.85-29.8-.75 0-.75-.1.1-.45l1-.45-1-.05-1-.05 1-.45c.85-.35.85-.45.15-.45-.6-.05-.9-.45-.9-1.25 0-.75.35-1.3.9-1.45.8-.2.8-.25 0-.3s-.9-.6-.9-4.55c0-3.65.15-4.5.75-4.5.4 0 .75-.2.75-.5 0-.25-.35-.5-.75-.5-.9 0-1-1.3-.1-1.65.35-.15.2-.3-.35-.3-.6-.05-.8-.3-.6-.85.25-.65-2.25-.7-24.6-.45-13.65.15-25.85.25-27.1.2-1.25 0-4.4-.1-7-.15l-4.75-.05-.15-24.1c-.1-21.25 0-24.15.65-24.15.45 0 .75-.45.7-1.1 0-.65-.15-.85-.3-.5-.75 1.9-1.15-.15-1.15-6.4v-7h145v147.9c0 99.9.15 137.95.55 138.7.45.8.4.95-.1.65-.4-.3-.5-.2-.15.3.6 1 .7 1.95.15 1.95-.5 0-.55 53.4-.05 54.25.55.8.45 5.45-.15 5.85-.3.25-.25.4.2.4.55 0 .55.15 0 .8-.35.45-.45.9-.15 1.1.7.55.8 2.1.2 2.85-.35.4-.35.8-.1.95.3.15.35 1.25.15 2.4-.4 2.85-.4 73.7.05 75.75.2 1 .1 1.7-.25 1.85-.45.15-.45.25 0 .25.4.05.45.5.15 1.6-.25.9-.35 1.8-.15 2.1.4.65.8 10.15.85 19.35l.05 7.25-72.85.15c-49.9.1-72.9-.05-73.15-.4m-467.1-.85c.15-.25-31.35-.35-69.95-.25l-70.2.1v-62.85c-.15-396.2-.15-389-1.1-388.75-.85.2-.9-.25-.8-7.2l.15-7.45 73-.1c40.15-.05 72.8 0 72.5.15-.35.15-.45 11.2-.35 32.2l.1 32h-64v339l31.9.1 31.85.15.15 30.5c.05 16.8 0 31-.15 31.65-.2.85-.65 1.1-1.8 1.1-.85 0-1.4-.15-1.3-.35"/>
    <path d="M464.75 731c-42-1.95-79.45-12.9-112.75-32.95-20.1-12.15-34.3-23.8-49.65-40.8-15.85-17.55-29.45-39.7-38.85-63.25-8.35-20.95-13-41.8-15-67.45-2.15-27.85 2.95-61.55 13.7-90.95 3.65-10.05 6.1-15.45 10.85-24.25 11.95-22.2 20.75-34.2 37.2-50.65 16.8-16.8 32.75-28.55 54-39.7 30.6-16.1 63.25-24.6 101.95-26.55 12.05-.6 26.7-.15 39.55 1.25 3.3.35 6.1.45 6.15.25.3-.75 4.65-.5 9.35.55 2.5.55 5.05 1.1 5.75 1.2 3.5.6 4.8.85 5.5 1.1.4.15 1.45.4 2.25.5 1.6.25 8.75 2.05 15.9 4 5.1 1.4 15.2 5.1 18.7 6.85 1.3.7 4.1 1.9 6.15 2.75 16.85 6.75 32.2 16.25 53.5 33 3.9 3.1 19.4 18.5 19.75 19.65.45 1.3-.05 2-5.35 7.65-2.6 2.8-6.2 6.65-7.9 8.55-1.75 1.95-6.15 6.55-9.7 10.3-3.6 3.8-7.1 7.5-7.75 8.25-3.15 3.75-12.7 13.95-17.25 18.45-2.8 2.75-7.7 7.8-10.95 11.2-5.65 5.95-5.95 6.15-6.75 5.3s-.8-.85.1-.55c.8.25.85.2.3-.45-.35-.4-.9-.75-1.2-.75-.35 0-1.5-.95-2.55-2.05-1.25-1.3-1.65-1.95-1.05-1.75.8.25.85.2.3-.45-.35-.4-.9-.75-1.2-.75s-2-1.3-3.8-2.9c-4.35-3.9-14.5-12.15-15.4-12.45-.35-.15-.55-.6-.4-.95.15-.4-.05-.7-.45-.7s-3.25-1.65-6.35-3.7c-5.95-3.85-10.55-6.3-17.15-9.15-8.2-3.55-13.05-5.55-14.9-6.1-1-.35-1.75-.8-1.6-1.05.15-.2-.3-.5-1-.6-.65-.15-1.1-.05-.95.15.25.45-2.75-.45-3.55-1.1-.7-.55-12.15-2.75-18-3.5-6.65-.8-24.1-.85-31 0-15.6 1.85-31.15 6.25-42.7 12-32.8 16.5-55.55 44.6-64.8 80.1-5.35 20.5-5.85 41.45-1.5 63.25 4.75 23.7 15.85 44.3 33.25 61.75 10.1 10.1 23 19.1 35.45 24.75 16.6 7.45 32.45 11 52.05 11.55 12.95.35 22.7-.65 35.5-3.6.4-.1.9-.2 1.15-.2.2-.05.35-.35.35-.7s1.5-1.1 3.4-1.75c1.85-.6 3.6-1.2 3.85-1.3.3-.05 1.5-.6 2.75-1.15s3.15-1.3 4.25-1.65c2.45-.8 13.95-5.95 17.9-8.05 1.6-.85 3.25-1.4 3.65-1.25.45.2.7.05.6-.4-.1-.4 1.65-1.95 4.1-3.6 4.2-2.85 8.8-6.55 16-12.9 3.65-3.2 5-3.9 5-2.7 0 .35.9-.35 2-1.5 2-2.1 2.4-2.9 1.55-3.2-.6-.2 5.6-6.9 6.35-6.9.95 0 3.55 2.5 3.7 3.65.1.6.45 1.05.85.95.95-.2 25.4 23.65 25.75 25.2.2.65.6 1.15 1 1.1.35-.1 2.7 1.75 5.3 4.1 5.95 5.45 27.3 26.7 27.95 27.85.35.7.2 1.3-.85 2.65-1.3 1.75-2.2 2.75-9.5 10.65-2.25 2.4-4.1 4.55-4.1 4.8 0 .2-.95 1.05-2.1 1.9-1.2.85-3.85 3.3-5.9 5.4-7.2 7.4-19.4 16.5-33.1 24.8-6.55 3.95-31.1 15.55-37.55 17.75-4.85 1.65-14.75 4.2-16.35 4.2-.7 0-1.5.2-1.75.45-.7.65-7.6 2.2-8.2 1.85-.25-.15-.55-.1-.65.1-.35.85-15.75 3.95-16.4 3.3-.3-.3-2.95-.25-6.85.15-16.15 1.55-25.3 1.8-39.9 1.15m192.1-148.9c-1.1-.1-2.05-.5-2.2-.9s-.5-.7-.85-.7c-.85 0-.4-14.45.45-15.35.5-.45.65-2.55.65-7.7-.05-5 .15-7.15.55-7.4.35-.2.55-.6.45-.9-.15-.55 11.45-11.8 13.15-12.7.6-.3 1.65-1.05 2.4-1.7 1.45-1.25 5.4-4.6 12.8-10.7 2.75-2.3 6.8-5.8 9-7.8s5.6-4.9 7.5-6.45c1.95-1.55 4.95-4 6.75-5.45 5.4-4.3 16.15-14 18.45-16.65 2.3-2.6 6.15-8.3 7.45-11.05.45-.9 1.15-1.65 1.55-1.7.55 0 .6-.1.2-.3-1.05-.4-.75-1.3.3-1 .7.15 1.05-.1 1.25-.85.45-1.7.35-2.3-.45-2.3-.4 0-.75-.2-.75-.5 0-.25.3-.5.7-.5 1 0 1.3-1.15 1.3-4.6 0-2.55-.15-3.05-1-3.25-.55-.15-1-.7-1-1.2 0-1.4-1.5-5.55-2.6-7.05-.7-1-.8-1.4-.3-1.4.35 0 .1-.3-.6-.65-.7-.4-1.2-.95-1.1-1.25.05-.35-.25-.6-.7-.6s-1.45-.5-2.3-1.05c-2.7-1.95-7.05-2.95-12.55-2.95-9.4 0-14.8 2.15-21.55 8.55-2.25 2.05-5.1 4.75-6.4 5.95-1.35 1.2-2.4 2.5-2.4 2.85s-.3.65-.65.65c-.4 0-.95.5-1.3 1.15-.35.6-1.15 1.5-1.75 1.95-1.15.85-1.25.8-6.3-3.4-2.8-2.3-6.85-5.45-9-7.05-2.2-1.55-3.85-3-3.7-3.25.15-.2-.15-.4-.65-.4-.55 0-2.35-1.05-4.1-2.3-2.65-1.9-3-2.4-2.5-3 .5-.65.5-.85 0-1.15-.85-.55 1.55-4.4 3.1-5.05.6-.25.8-.45.4-.45-1-.05.3-1.55 1.4-1.6q.825 0 .15-.3c-.85-.35.2-1.65 1.35-1.65.65 0 .65-.1.15-.45-.5-.3.65-1.8 4.5-5.7 6.35-6.5 10.3-9.45 16.4-12.3 2.6-1.2 5.3-2.5 6-2.85 2.65-1.35 11.85-3.75 16.4-4.25 2.9-.35 8.65-.45 14.55-.3 8.55.25 10.4.45 14.55 1.6 2.6.75 5.95 1.65 7.4 2.05 4.65 1.25 15.6 7.75 15.6 9.25 0 .5.25 1.05.5 1.2.3.15.5 0 .5-.35s1.1.5 2.5 1.85c1.35 1.35 2.45 2.8 2.35 3.25-.05.45.2.7.8.6.45-.1.85.05.85.35 0 .25.3.8.65 1.15 1.65 1.85 5.45 7.9 5.95 9.65 3.15 10.25 3.45 12.05 3.7 19.35.25 7.95-.45 14.25-2.35 20.45-1.1 3.6-4.55 10.05-6.35 11.85-.6.6-1.1 1.45-1.1 1.85s-.2.75-.5.75c-.25 0-.5.35-.5.75s-.2.75-.5.75c-.25 0-.5.25-.5.6 0 .75-.65 1.5-10 10.75-4.2 4.2-7.85 7.5-8.05 7.35-.25-.15-.45-.05-.45.25 0 .25-1.3 1.5-2.85 2.75-1.6 1.25-3.25 2.65-3.7 3.05s-1 .75-1.25.75-.75.45-1.1 1-.9 1-1.25 1-.95.45-1.35 1.05c-.4.55-2.45 2.3-4.5 3.85s-5.1 4-6.75 5.4-4.8 3.9-7 5.55c-2.2 1.7-4.75 3.8-5.65 4.8l-1.65 1.7 1.6.35c.85.15 2.95.3 4.6.3 2.15 0 3.15.2 3.6.8.5.75.65.75 1.35 0 .65-.6 1.85-.8 5.35-.8 2.5 0 4.55.2 4.55.45s-.4.6-.85.7c-.5.15 4.25.25 10.55.3 9.95.05 11.35-.05 11.1-.7s.8-.75 7.7-.75c6.8 0 8 .1 8 .75 0 .6.85.75 4.7.75 4.1 0 4.75-.1 4.95-.85.2-.85.25-.85.3 0 .05.5.45.85 1.05.85.55 0 1 .35 1 .8 0 .4-.2.6-.5.45-.25-.15-.5.05-.5.5s.25.65.5.5c.3-.2.5 1.25.5 3.95 0 2.35-.2 4.35-.45 4.5-.55.35-.6 8.8 0 9.85.25.5.15 1.05-.2 1.45-.45.5-.45.55.05.3.45-.3.6.7.6 4.2 0 2.9-.2 4.45-.5 4.25-.25-.15-.35 0-.2.45.2.5-.1.85-.9 1-1.25.3-115.35.65-118.55.4m-589-327.95c-1.5-1.45 1.15-3.1 50.15-31.35 9.9-5.65 21.95-12.7 48.5-28.2 4-2.35 9.85-5.75 13-7.6 3.15-1.8 10.15-5.85 15.5-9 5.35-3.1 14.5-8.4 20.25-11.75 12.3-7.1 50.85-29.6 69.5-40.5 7.15-4.2 18.4-10.7 25-14.5s18.75-10.9 27-15.75 17.95-10.55 21.5-12.6c3.6-2.05 9.75-5.65 13.75-8s9.85-5.7 13-7.5 9.15-5.25 13.25-7.65c15.4-8.95 20.8-12.05 33.25-19.25 13.7-7.9 19.5-11.25 34-19.75 5.1-2.95 11.3-6.55 13.75-8 2.5-1.4 7.5-4.3 11.1-6.4C501.55-.1 503.5-.95 503.5.9c0 .55-1.55 1.65-4.9 3.35-2.65 1.4-4.95 2.6-5.1 2.75-.7.7-3.05 2-3.7 2-.4 0-.8.2-.9.4-.3.75-3.75 2.6-4.85 2.6-.55 0-1.05.3-1.05.65 0 .6-6.95 4.85-7.95 4.85-.25 0-.55.2-.65.45-.2.55-16.55 10.05-17.3 10.05-.3 0-.6.2-.7.45-.2.5-14.05 8.55-14.8 8.55-.3 0-.6.2-.7.4-.2.55-21.1 12.6-21.8 12.6-.3 0-.6.2-.7.4-.2.5-14.1 8.6-14.8 8.6-.25 0-.6.2-.7.4-.2.55-11.55 7.1-12.25 7.1-.3 0-.65.2-.75.4-.2.55-15.15 9.1-15.8 9.1-.3 0-.6.2-.7.4-.3.75-7.3 4.6-8.35 4.6-.6 0-1.05.3-1.05.75 0 .4-.55.85-1.25 1.05-.7.15-1.25.45-1.25.65s-.95.9-2.1 1.55c-1.2.6-8.05 4.65-15.3 8.9s-13.6 7.85-14.15 7.95c-.5.15-.95.45-.95.65s-1.05.9-2.35 1.55c-1.35.65-2.5 1.35-2.65 1.5-.4.4-27.3 15.9-28.35 16.3-.5.2-1 .5-1.15.7-.55.75-28.6 16.95-29.4 16.95-.3 0-.6.2-.7.4-.15.4-8.2 5.2-24.7 14.75-2.2 1.3-4.3 2.35-4.6 2.35-.25 0-.6.2-.7.4-.3.8-7.2 4.6-8.3 4.6-.6 0-1.1.3-1.1.7s-.5.9-1.1 1.1c-.65.2-1.25.5-1.4.7-.4.55-20.3 12-20.9 12-.3 0-.6.2-.7.4-.2.55-14.1 8.6-14.8 8.6-.3 0-.6.2-.7.4-.05.25-5.65 3.65-12.4 7.6-6.75 3.9-18.9 11-27 15.7-8.1 4.75-18.55 10.85-23.25 13.55-4.65 2.65-12.7 7.3-17.8 10.3-5.15 3-9.75 5.6-10.25 5.8-.55.15-1.05.5-1.2.65-.45.6-8.2 5-8.8 5-.35 0-.7.2-.8.45-.05.2-2.95 2.05-6.4 4.05-3.45 1.95-6.95 4-7.8 4.55-.85.5-1.7.8-1.85.6m853.65-22.2c-.85-.65-.9-.85-.25-.5 1.65.85 2.55 1.55 2 1.55-.25 0-1.05-.5-1.75-1.05m-45-26c-.85-.65-.9-.85-.25-.5 1.65.85 2.55 1.55 2 1.55-.25 0-1.05-.5-1.75-1.05m-9.65-5.4c-2-1.3-2.35-1.8-.6-.9 2.1 1.15 3.1 1.85 2.5 1.8-.25 0-1.1-.4-1.9-.9m-85.7-50.05c-.9-.55-1.65-1.1-1.65-1.25 0-.1.8.25 1.75.8.95.6 1.75 1.15 1.75 1.25 0 .3-.15.25-1.85-.8M588.9 38.7c-1.9-1-1.8-1.4.1-.45.85.45 1.5.9 1.5 1 0 .35-.05.3-1.6-.55"/>
  </g>
  <g fill="#1e2a67">
    <path d="M506.25 1023.5c-.15-.25-1.05-.5-1.95-.5-3.55 0-18.3-5.25-18.3-6.5 0-.25-.55-.55-1.25-.7-.7-.2-1.25-.55-1.25-.8 0-.3-.3-.5-.65-.5s-1.8-.8-3.3-1.75c-1.45-.95-2.8-1.75-3-1.75s-1.45-.7-2.85-1.6c-1.35-.85-3.7-2.25-5.2-3.05s-3.7-2.1-4.9-2.9-2.25-1.45-2.4-1.45c-.35 0-7.35-4.1-7.7-4.5-.15-.15-.8-.55-1.5-.9-.7-.3-1.6-.8-2-1.05s-5.25-3.1-10.75-6.3-10.35-6.05-10.75-6.25c-6-3.55-11.9-6.95-13.4-7.7-1-.5-1.95-1.05-2.1-1.25-.35-.4-1.8-1.25-4.9-2.8-1.4-.75-2.9-1.6-3.25-1.9-.35-.35-2.1-1.35-3.85-2.3-1.8-.95-3.9-2.15-4.65-2.7-.75-.5-2.65-1.65-4.25-2.45-1.55-.85-2.95-1.7-3.1-1.9s-.75-.5-1.35-.7c-.65-.2-1.45-.65-1.8-.95-.35-.35-1.85-1.25-3.35-2.05s-2.85-1.6-3-1.75c-.4-.45-3.1-1.95-4.6-2.6-.8-.3-1.4-.75-1.4-1s-.25-.45-.5-.45c-.3 0-1.7-.7-3.15-1.5-1.4-.85-2.95-1.75-3.35-2-5.9-3.35-10.8-6.3-11-6.5-.15-.15-.8-.55-1.5-.9-.7-.3-1.6-.8-2-1.05-.4-.3-2.45-1.45-4.5-2.65-2.05-1.15-3.8-2.3-3.9-2.5-.1-.25-.4-.4-.65-.4-.55 0-10.05-5.4-10.45-5.9-.15-.2-1.55-1-3.1-1.85-1.6-.8-2.9-1.65-2.9-1.85s-.2-.4-.5-.4c-.4 0-4.5-2.2-7.5-4-.4-.25-3.55-2.05-7-4.05-3.45-1.95-9.15-5.3-12.65-7.4-3.55-2.1-7.6-4.45-9-5.2-1.45-.8-3.15-1.8-3.85-2.25s-2.5-1.45-4-2.25-2.85-1.6-3-1.8-.8-.6-1.5-.95c-2.45-1.2-7.75-4.2-8-4.5-.15-.2-1.55-1-3.1-1.85-1.6-.8-2.9-1.65-2.9-1.85 0-.25-.25-.4-.6-.4-.3 0-2.2-.95-4.1-2.05-11.25-6.6-13.05-7.7-13.2-8.05-.1-.2-.45-.4-.8-.4-.3 0-1.75-.8-3.25-1.75-1.45-.95-2.8-1.75-3.05-1.75-.2 0-1.55-.8-3-1.75s-2.75-1.75-2.95-1.75c-.15 0-1.5-.8-3-1.75-1.45-.95-2.75-1.75-2.9-1.75-.25 0-7.3-4.1-7.65-4.5-.15-.15-1.25-.8-2.5-1.45-1.8-.95-14.4-8.2-17.5-10.05-.4-.25-4-2.3-8-4.55-4-2.3-7.35-4.25-7.5-4.45-.15-.15-.8-.55-1.5-.9-.7-.3-1.6-.8-2-1.1-.4-.25-2.9-1.65-5.5-3.05-2.6-1.45-4.85-2.75-5-2.9-.15-.2-.8-.6-1.5-.95-2.2-1.1-6.9-3.85-7.35-4.25-.2-.25-1.05-.75-1.9-1.15-.8-.4-2.15-1.15-3-1.65-.8-.55-2.9-1.7-4.65-2.6-1.7-.85-3.1-1.8-3.1-2 0-.25-.3-.45-.7-.45s-1.05-.3-1.4-.65-1.4-.95-2.25-1.3c-.9-.35-1.65-1-1.65-1.35 0-.4.1-.7.2-.7.55 0 16.7 9.25 31.55 18 8.25 4.9 8.05 4.75 17 9.75 3.85 2.15 10.15 5.75 14 8s9.6 5.6 12.75 7.4 11.4 6.55 18.25 10.65c6.9 4.05 15.9 9.3 20 11.7 4.15 2.4 9.55 5.55 12 7 2.5 1.45 9.8 5.65 16.25 9.4 6.45 3.7 12 6.9 12.25 7.1.3.2 5.1 3 10.75 6.25 5.65 3.2 11.25 6.5 12.45 7.3 1.15.85 3.3 2.05 4.7 2.8 3.85 1.95 23.3 13.1 25.7 14.7 3 2.1 13.75 8.4 18.15 10.65 2.05 1.1 6.35 3.55 9.5 5.45 9.1 5.55 22.05 13.1 30.75 18 4.4 2.45 10.05 5.7 12.5 7.2 2.5 1.55 5.2 3.15 6 3.65.85.45 2.65 1.55 4 2.35 4.6 2.8 15.45 9 20.75 11.95 2.9 1.6 9.15 5.2 13.9 8.05 16.65 10.05 25.15 14.6 30.1 16.2 4.85 1.55 13.65 2.9 15.15 2.3.8-.3.85-5.1.85-70.5V880.7l1.9-1.05c1-.55 4.65-2.7 8.1-4.75 10.15-6.05 29.25-17.3 36-21.15 6.1-3.5 12.4-7.2 28.65-16.8 4.35-2.6 10.95-6.5 14.75-8.65 3.75-2.2 10.35-6.05 14.6-8.55 4.25-2.55 10.1-5.95 13-7.6 5.9-3.4 7.65-4.4 28.5-16.6 8.1-4.75 17.7-10.35 21.25-12.45 3.6-2.05 12.5-7.3 19.8-11.65 7.3-4.3 14.4-8.4 15.75-9.1 2.85-1.45 20.7-12.1 26.05-15.5l3.6-2.3 72.15-.15 72.15-.15.25-12.75c.3-13 .5-15 .75-6.45.15 7.15.05 6.9 5.6 10.25 2.7 1.55 6.25 3.7 7.9 4.7 1.65 1.05 3.8 2.3 4.75 2.85s5.05 2.95 9.15 5.3c4.05 2.4 10.65 6.3 14.75 8.7 4.05 2.35 11.15 6.55 15.75 9.3 7.55 4.45 8.6 4.9 10.1 4.65 1.5-.3 1.75-.2 1.75.6 0 1.1-1.2 2.3-3 3.05-.7.3-1.9 1-2.75 1.55-.8.55-1.95 1.2-2.5 1.5s-1.65.95-2.5 1.5c-.8.55-1.95 1.25-2.5 1.5-.55.3-1.85 1.05-2.85 1.65s-3.9 2.3-6.5 3.75c-2.55 1.45-5 2.85-5.4 3.15-.4.25-1.55.85-2.5 1.35s-2.7 1.5-3.9 2.25c-1.15.75-3.2 2-4.55 2.75s-5.05 2.85-8.2 4.75c-3.2 1.85-5.9 3.35-6.05 3.35s-1.25.65-2.45 1.5c-1.2.8-2.75 1.7-3.4 2s-2.3 1.25-3.7 2.05c-1.35.8-3.05 1.75-3.75 2.1s-2.2 1.25-3.35 2c-1.2.75-2.45 1.35-2.85 1.35-.35 0-.95.35-1.35.8-.35.45-1.35 1.15-2.25 1.6-4.75 2.45-7.8 4.2-10.95 6.3-1.9 1.25-3.7 2.3-4.05 2.3-.3 0-.85.35-1.2.75s-1 .75-1.5.75c-.45 0-1.25.45-1.75 1s-1.3 1-1.75 1-1.25.45-1.75 1-1.1 1-1.3 1-1.4.65-2.6 1.45c-2.25 1.55-8.05 4.85-9.35 5.35-.9.3-1.15.5-4 2.4-1.2.75-3.1 1.9-4.2 2.5-1.15.6-2.95 1.7-4.05 2.35-1.95 1.25-3.4 2.1-6.5 3.7-.8.45-2.15 1.25-3 1.75-.8.55-2.15 1.35-3 1.8-.8.4-2.4 1.3-3.5 2-1.1.65-2.9 1.65-4 2.25-2.35 1.2-3.25 1.75-6.15 3.6-1.2.75-2.65 1.6-3.25 1.9-1.5.7-3.65 1.95-6.25 3.6-1.2.75-2.65 1.6-3.25 1.9-.6.25-1.75.9-2.6 1.45-.8.55-2.15 1.35-3 1.75-.8.45-2.1 1.15-2.85 1.65-1.25.8-7.05 4.2-9.15 5.35-.55.3-1.95 1.15-3.15 1.9s-2.65 1.6-3.25 1.9c-.6.25-2 1.05-3.1 1.7-1.1.7-2.55 1.55-3.25 1.9s-2.2 1.25-3.4 2-2.65 1.6-3.25 1.9c-.6.25-1.75.9-2.6 1.45-.8.55-2.15 1.35-3 1.75-1.5.8-2.55 1.35-4.1 2.25-.5.3-1.3.65-1.75.8-.5.2-.9.5-.9.7 0 .25-.45.6-1 .75-.6.2-2.55 1.35-4.35 2.55s-3.5 2.2-3.8 2.2-.9.3-1.3.7c-.45.4-1.95 1.35-3.4 2.1-1.4.8-4.5 2.65-6.9 4.1-2.4 1.4-4.65 2.6-5.05 2.6s-.7.2-.7.45-.8.8-1.75 1.25-1.85 1.05-2 1.3c-.15.3-.7.5-1.2.5s-1.3.45-1.8 1-1.1 1-1.3 1-1.55.8-3 1.75c-1.5.95-3.05 1.75-3.5 1.75s-1.15.35-1.5.85c-.4.45-1.35 1.1-2.2 1.5-.8.35-2.1 1.05-2.85 1.55-4.55 2.9-8.4 5.1-9.05 5.1-.4 0-1.05.35-1.4.85-.4.45-1.35 1.1-2.2 1.5-.8.35-2.15 1.1-3 1.65-.8.55-1.95 1.2-2.5 1.5s-2.55 1.5-4.5 2.75c-1.9 1.2-3.85 2.25-4.3 2.25s-1.2.45-1.7 1-1.3 1-1.75 1c-.5 0-1.2.35-1.55.8s-1.1 1-1.7 1.25c-.55.25-1.6.85-2.3 1.35-1.45.95-13.25 7.8-15.7 9.1-.8.45-2.45 1.4-3.65 2.15s-2.65 1.6-3.25 1.9c-.6.25-1.75.9-2.6 1.45-.8.55-2.5 1.5-3.75 2.15-1.25.6-3.35 1.85-4.65 2.75-1.3.85-2.6 1.6-2.8 1.6-.25 0-1.3.6-2.35 1.3-1.05.75-3.6 2.2-5.65 3.25-2.05 1.1-4.05 2.25-4.5 2.65s-1.95 1.35-3.4 2.1c-1.4.8-3.95 2.3-5.65 3.35-1.7 1-3.25 1.85-3.5 1.85-.2 0-1.55.75-2.95 1.65-5.75 3.65-6.95 4.35-7.45 4.35-.25 0-.75.35-1.1.75s-1.05.75-1.55.75c-.55 0-.95.2-.95.4 0 .25-.6.75-1.35 1.15-.8.35-1.95 1.05-2.65 1.55-.7.45-2.2 1.35-3.35 2s-3.7 2.1-5.65 3.3c-2 1.15-3.9 2.1-4.3 2.1s-.7.2-.7.4c0 .25-.6.75-1.35 1.15-.8.4-2.3 1.3-3.45 2.05-1.1.75-3.6 2.15-5.5 3.15s-4.1 2.25-4.95 2.8c-.8.5-1.95 1.15-2.5 1.45-1.1.55-2.1 1.15-4.8 2.85-.95.65-2.1 1.15-2.5 1.15-.45 0-1.2.45-1.7 1s-1.3 1-1.85 1c-.5 0-.9.2-.9.45s-.8.8-1.75 1.25-1.85 1.05-2 1.3c-.15.3-.75.5-1.3.5s-1.55.35-2.2.8c-.7.45-1.25.65-1.25.5 0-.2-.5 0-1.1.4-.65.4-3.15 1.1-5.65 1.55-2.45.45-4.9 1.05-5.35 1.3-1.2.6-4.55.6-4.15-.05.15-.25-.15-.5-.75-.5s-.9.25-.75.5c.15.3.1.5-.1.5-.25 0-.7-.45-1.05-1-.65-1.05-2.1-1.4-2.1-.45 0 .25.25.35.5.2.3-.15.5.05.5.45 0 .6-.5.8-1.95.8-1.1 0-2.15-.2-2.3-.5m-366.1-207.85c-.35-.1-.65-.55-.65-.95 0-.6.2-.6 1-.2 1.6.85 1.3 1.85-.35 1.15M128 808.5c-5.65-3.25-10.5-6.15-10.85-6.45s-.75-.55-.95-.55c-.25 0-13.75-7.65-14.65-8.3-.05-.1-.05-.35 0-.65.2-.6 16.05 7.85 23.7 12.65 2.75 1.75 5.8 3.6 6.75 4.2.95.55 2.95 1.75 4.4 2.6 2.25 1.4 3.35 2.55 2.25 2.45-.25 0-5-2.7-10.65-5.95m-28.85-16.6c-1.35-.65-1.6-2-.25-1.55 1.15.4 2.1 1.2 2.1 1.7 0 .55-.45.5-1.85-.15m-4.8-2.85c-2.75-1.6-3.65-2.4-3.25-2.85.2-.15.8.2 1.35.75.6.6 1.05.95 1.05.8s.9.2 2 .75 2 1.25 2 1.5c0 .75-.55.6-3.15-.95"/>
    <path d="M87 784.85c-7.8-4.75-10.15-6.15-11.4-6.85-7.25-4-9.05-5.15-8.8-5.55.5-.8 1.5-.45 4.85 1.7 1.85 1.15 5.2 3.1 7.45 4.35 7.9 4.3 13 8 11 8-.2 0-1.6-.75-3.1-1.65m870-20.1c0-3.9.15-4.75.75-4.75s.75.85.75 4.75-.15 4.75-.75 4.75-.75-.85-.75-4.75m0-14c0-3.45.15-4.25.75-4.25s.75.8.75 4.25-.15 4.25-.75 4.25-.75-.8-.75-4.25m0-6c0-.8.3-1.25.75-1.25s.75.45.75 1.25-.3 1.25-.75 1.25-.75-.45-.75-1.25m-680.75-.25c.15-.25.75-.5 1.25-.5s1.1.25 1.25.5c.2.3-.35.5-1.25.5s-1.45-.2-1.25-.5M957 737.25c0-3 .15-3.75.75-3.75s.75.75.75 3.75-.15 3.75-.75 3.75-.75-.75-.75-3.75m-214 1.5c0-.8.3-1.25.75-1.25s.75.45.75 1.25-.3 1.25-.75 1.25-.75-.45-.75-1.25m-231.65-9.1c-.3-.5 16.1-3.4 16.55-2.9.15.15-.1.25-.55.25-.5 0-3.15.55-6 1.2-6.5 1.55-9.65 2-10 1.45m231.65-.9c0-.8.3-1.25.75-1.25s.75.45.75 1.25-.3 1.25-.75 1.25-.75-.45-.75-1.25m214-1.5c0-2.1.15-2.75.75-2.75s.75.65.75 2.75-.15 2.75-.75 2.75-.75-.65-.75-2.75m-426.25-1.55c1.4-.35 2.85-.65 3.25-.65s-.35.35-1.75.75c-1.35.35-2.85.65-3.25.65s.4-.35 1.75-.75m14-3.65c6.9-2 17.4-5.75 22.7-8.1 1.75-.8 3.3-1.4 3.4-1.3.25.3-12.2 5.85-16.1 7.2-4.1 1.4-14.65 4.15-15.75 4.1-.4 0 2.2-.85 5.75-1.9M743 701.75c0-16.8.1-19.25.75-19.25s.75 2.45.75 19.25-.1 19.25-.75 19.25-.75-2.45-.75-19.25m145 15c0-.7.2-1.25.45-1.25.2 0 .3.55.15 1.25-.1.7-.3 1.25-.4 1.25s-.2-.55-.2-1.25m69-2.5c0-1.2.25-1.75.75-1.75s.75.55.75 1.75-.25 1.75-.75 1.75-.75-.55-.75-1.75m-69-1.1c0-2.15.3-2.05.65.25.15.85.05 1.6-.2 1.6s-.45-.8-.45-1.85m-313.5-2.4c1.25-.65 2.5-1.2 2.75-1.2.3 0-.5.55-1.75 1.2s-2.45 1.2-2.75 1.2c-.25 0 .5-.55 1.75-1.2m5-2.2c9.7-5.15 15.2-8.35 23.25-13.65 2.5-1.65 3.7-2.3 2.75-1.45-3.8 3.25-24.55 15.55-26.25 15.5-.25 0-.15-.15.25-.4m377.5-4.8c0-2.55.15-3.25.75-3.25s.75.7.75 3.25-.15 3.25-.75 3.25-.75-.7-.75-3.25m0-8.75c0-.25.35-.5.75-.5s.75.25.75.5c0 .3-.35.5-.75.5s-.75-.2-.75-.5m-348.25-4.25c.85-.65 1.7-1.2 1.95-1.25.3 0-.25.55-1.2 1.25-2.2 1.6-2.7 1.6-.75 0m2.8-1.95c.1-.1 2.25-1.8 4.7-3.8 2.5-2 5.4-4.45 6.5-5.45l2-1.8-1.5 1.7c-1.5 1.7-11.05 9.55-11.6 9.55-.2 0-.2-.1-.1-.2m133.6-7.9c.2-.65 6-.7 51-.45 4.85.05 7.85.25 7.85.55 0 .35-10.2.5-29.55.5-23.4 0-29.5-.15-29.3-.6m-112.9-10.3c1.05-1.15 2.05-2.1 2.15-2.1.45 0-1.35 2.1-2.7 3.05-1.1.85-1 .65.55-.95m-.85-33.95c-9.25-9-16.7-16.55-16.6-16.75.35-.6 7.95 6.45 21.25 19.75 9.6 9.55 13.15 13.35 12.35 13.35-.1 0-7.75-7.35-17-16.35m325.6 9.6c0-.4.35-.75.75-.75s.75.35.75.75-.35.75-.75.75-.75-.35-.75-.75m-68.95-10.45c0-2.35.2-4.3.45-4.3.45 0 .25 7.9-.2 8.35-.15.15-.25-1.65-.25-4.05M512 635.4c0-.55 3.55-2.05 7.25-3.05.3-.05.75-.25 1-.45.3-.2 2.3-1.05 4.5-1.9 5.95-2.35 15-6.35 19.1-8.4 3.65-1.8 5.45-1.85 3.15-.05-.7.5-4.6 2.65-8.75 4.7-7.3 3.65-15.7 6.95-21.75 8.5-1.65.4-3.3.9-3.75 1.05-.45.2-.75.05-.75-.4m445-4.9q0-1.5.75-1.5t.75 1.5-.75 1.5-.75-1.5m-68.95-5.8c.05-2.35.15-4.15.3-4 .45.45.5 8.3.05 8.3-.2 0-.4-1.95-.35-4.3m68.95.8c0-.55.35-1 .75-1s.75.45.75 1-.35 1-.75 1-.75-.45-.75-1m0-4c0-.25.35-.5.75-.5s.75.25.75.5c0 .3-.35.5-.75.5s-.75-.2-.75-.5"/>
    <path d="M548.35 619.85c-.15-.45 1.1-1.6 3.8-3.4 4.05-2.7 9.25-6.9 16.35-13.15 3.7-3.25 5-3.95 5-2.6 0 .8-9.4 9.25-13.45 12.05-1.6 1.1-4.25 2.95-5.95 4.15-1.65 1.15-3.2 2.1-3.4 2.1s-.75.35-1.2.75c-.75.65-.9.7-1.15.1m52.4-13.05c-7.15-7-12.85-12.9-12.65-13.1.5-.45 25.2 23.55 25.55 24.8.15.55.2 1 .2 1-.05 0-5.95-5.75-13.1-12.7m-23.55-10.55c-.45-.4.25-1.4 2.55-3.9 1.7-1.85 3.35-3.35 3.65-3.35.9 0 3.6 2.55 3.6 3.4 0 .6-.4.4-1.55-.7l-1.55-1.45-3.1 3.3c-2.3 2.5-3.2 3.15-3.6 2.7m79.65-14.15c-1.1-.1-2.05-.5-2.2-.9s-.55-.7-.95-.7c-.55 0-.7-1.4-.7-7.5 0-6.15.15-7.5.7-7.5.4 0 .85-.3 1-.6.15-.35.25 2.95.25 7.35v8.65c.05.45 12.5.6 60.45.7 33.2.05 59.55.15 58.6.2-2.35.25-114.75.5-117.15.3m119.2-6.6c0-3.45.2-5.9.4-5.55.6.95.65 10.15.1 11-.3.45-.45-1.5-.5-5.45m180.95.75c0-1.2.25-1.75.75-1.75s.75.55.75 1.75-.25 1.75-.75 1.75-.75-.55-.75-1.75m0-3c0-.4.35-.75.75-.75s.75.35.75.75-.35.75-.75.75-.75-.35-.75-.75m-68.9-6c.05-.95.15-1.65.3-1.55.4.45.5 3.3.05 3.3-.25 0-.4-.8-.35-1.75m68.9-4c0-2.1.15-2.75.75-2.75s.75.65.75 2.75-.15 2.75-.75 2.75-.75-.65-.75-2.75m-180.65-2.6c-.55-.55-.4-8.55.2-8.9.35-.25.45 1.2.4 4.45-.05 2.65-.1 4.8-.2 4.8-.05 0-.25-.15-.4-.35M957 557c0-.25.35-.5.75-.5s.75.25.75.5c0 .3-.35.5-.75.5s-.75-.2-.75-.5m0-5.75c0-3.9.15-4.75.75-4.75s.75.85.75 4.75-.15 4.75-.75 4.75-.75-.85-.75-4.75m-301.1-1.85c-.25-.7 9.4-10.2 12.55-12.4.95-.7 2.35-1.75 3.05-2.3 4-3.4 8.35-7 12.75-10.65 2.75-2.3 6.8-5.8 9-7.8s5.6-4.9 7.5-6.45c1.95-1.55 4.95-4 6.75-5.45 5.4-4.3 16.15-14 18.45-16.65 2.3-2.6 6.15-8.3 7.45-11.05.45-.9 1.15-1.65 1.55-1.7.55 0 .6-.1.2-.3-.9-.35-.8-1.15.1-1.15 2.9 0-3.1 10.3-10.15 17.4-4.55 4.6-31.15 27.3-45.35 38.75-1.05.9-2.55 2.15-3.25 2.85s-3.4 3.05-6 5.25c-2.6 2.15-6.55 5.55-8.75 7.45-5.85 5.15-5.6 4.95-5.85 4.2m49.1-.3c0-.2 1.05-1.25 2.4-2.35 1.45-1.2 1.9-1.4 1.15-.6l-1.2 1.35 1.45.05c.8.05 2.15.1 2.95.15.85.05 2.3.15 3.3.2 1.1.05 1.95.4 2.15.85.25.65-.65.75-5.95.75-3.45 0-6.25-.2-6.25-.4m13.7-.35c.55-.55 1.9-.75 5.25-.75 2.5 0 4.55.2 4.55.45 0 .7-2 1.05-6.4 1.05-3.7 0-4.1-.1-3.4-.75m30.6-.05c-.25-.6.95-.7 7.7-.7 6.65 0 8 .1 8 .7 0 1.1-15.3 1.1-15.7 0m-17.8-.4c0-.5.4-.8 1.1-.8.6 0 .95.05.85.15-.1.05-.6.45-1.05.8-.75.6-.9.55-.9-.15M957 539c0-3.65.15-4.5.75-4.5s.75.85.75 4.5-.15 4.5-.75 4.5-.75-.85-.75-4.5m-240.05-.15c.35-.45 2.15-2 4-3.4 2.2-1.65 2.6-1.9 1.3-.7-2.85 2.6-6.15 5.15-5.3 4.1m8.3-6.7c1.2-1.3 6.85-5.75 7.05-5.55.1.15-1.2 1.35-2.9 2.65-3.85 2.95-4.85 3.65-4.15 2.9m231.75-4.4c0-2.55.15-3.25.75-3.25s.75.7.75 3.25-.15 3.25-.75 3.25-.75-.7-.75-3.25M740 520c2.85-2.45 5-3.8 2.5-1.5-1.25 1.1-2.7 2.3-3.25 2.55-.55.3-.2-.2.75-1.05m217-3.25c0-1.65.2-2.25.75-2.25s.75.6.75 2.25-.2 2.25-.75 2.25-.75-.6-.75-2.25m-211.95-.5c.1-.3 2.6-2.75 5.55-5.45 2.95-2.65 6.4-6 7.65-7.45 1.25-1.4 2.25-2.4 2.25-2.2 0 .25-1.3 1.8-2.85 3.45-3.6 3.75-12.9 12.35-12.6 11.65m211.95-13c0-2.1.15-2.75.75-2.75s.75.65.75 2.75-.15 2.75-.75 2.75-.75-.65-.75-2.75m-150 .5c0-1.2.25-1.75.75-1.75s.75.55.75 1.75-.25 1.75-.75 1.75-.75-.55-.75-1.75m-45.5-4.15c0-.25.35-.75.75-1.1s.75-.4.75-.1c0 .25-.35.75-.75 1.1s-.75.4-.75.1m5-6.7c0-.2.8-1.85 1.8-3.6 3.3-6.05 5.25-13.4 6.35-24.3.15-1.15.2-.85.25 1 .2 5.8-2.05 15.95-4.6 20.85-1.55 3-3.75 6.5-3.8 6.05m-31-22.9c0-.25.35-.5.75-.5s.75-.25.75-.6c0-.3.1-.45.25-.3s.15.65-.05 1.1c-.35.85-1.7 1.1-1.7.3m-59.3-5.85c-2.15-1.8-6.1-4.85-8.7-6.8-5.65-4.2-5.85-4.35-5.15-4.35s11.35 7.8 15.5 11.3c1.75 1.45 2.95 2.75 2.7 2.9-.2.15-2.2-1.2-4.35-3.05m60.2-2.55c-.5-.1-.9-.6-.9-1.1 0-1.45-1.5-5.6-2.6-7.1-.55-.8-.75-1.4-.4-1.4 1.35 0 3.3 3.15 4.25 6.8.4 1.6.7 2.9.6 2.95-.05.05-.5 0-.95-.15m37.9-3.4c-.75-8.35-4.1-17.75-8.6-24.05-1.25-1.75-2.15-3.35-1.95-3.55s.5-.05.6.3c.15.35.5.9.8 1.25 1.7 1.8 5.45 7.9 5.95 9.6 2.15 7 3.45 12.75 3.7 16.15.2 2.25.25 4.1.1 4.1s-.4-1.7-.6-3.8m-83.05-2.55c4.95-4.8 9.75-8.1 13.45-9.35 5.9-2 14.55-2.05 19.8-.15 2.9 1.05 6.7 3.35 5.55 3.35-.35 0-1.3-.5-2.15-1.05-5.4-3.85-19-4-26.3-.25-3.25 1.7-5.05 3.1-9.9 7.75-2.25 2.25-4.35 4.05-4.55 4.05-.2-.05 1.6-2 4.1-4.35m115.75-.4c0-.8.3-1.25.75-1.25s.75.45.75 1.25-.3 1.25-.75 1.25-.75-.45-.75-1.25"/>
    <path d="M657.6 450.25c-1.75-1.25-3-2.5-2.85-2.75.2-.3 1.25.25 2.4 1.15s2.75 2.15 3.55 2.75c2.85 2.15-.05 1.05-3.1-1.15m73.4.5c-.35-.4-.4-.75-.1-.75.25 0 .75.35 1.1.75s.4.75.1.75c-.25 0-.75-.35-1.1-.75m-75.9-4.7c-.55-.35-.45-.85.6-2.5.75-1.15 1.85-2.3 2.45-2.55s.8-.45.4-.45c-1-.05.3-1.55 1.4-1.6q.825 0 .15-.3c-.85-.35.2-1.65 1.35-1.65.65 0 .65-.1.15-.45-.5-.3.65-1.8 4.5-5.7 6.35-6.5 10.3-9.45 16.4-12.3 2.6-1.2 5.35-2.5 6.05-2.85 2.3-1.2 13.1-4.1 16.7-4.55 1.95-.2 7.55-.35 12.5-.25 9.35.1 11.2.4 22.65 3.6 5.3 1.5 16.6 7.85 16.6 9.4 0 .6-.15.6-1.1-.1-.65-.4-2.6-1.6-4.35-2.65-11.3-6.5-23.05-9.05-39.05-8.5-18.15.6-31 5.9-43.75 17.95-3.7 3.45-6.45 6.85-12.35 15.05-.45.55-.9.7-1.3.4m-72.1-10.8c-.7-.8-.5-.9.7-.45.45.15.8.5.8.75 0 .7-.8.55-1.5-.3m-3.25-3.75c-2.05-2.1-1.8-2.7.45-.95 1.4 1.1 2.6 2.95 1.9 2.95-.2 0-1.3-.9-2.35-2m227.25-1c0-.25.35-.5.75-.5s.75.25.75.5c0 .3-.35.5-.75.5s-.75-.2-.75-.5m-46.9-2.65c-1.15-1.15-2.1-2.45-2.1-2.85s1.15.4 2.5 1.75c1.4 1.35 2.5 2.65 2.5 2.85 0 .85-.85.3-2.9-1.75M574 425.6c-4.3-3.8-14.5-12.15-15.35-12.45-.85-.35-.85-1.15.05-1.15 1.25 0 20.25 16.45 19.05 16.5-.3 0-1.95-1.3-3.75-2.9m233 .4c0-.25.35-.5.75-.5s.75.25.75.5c0 .3-.35.5-.75.5s-.75-.2-.75-.5m0-3.75c0-1.2.25-1.75.75-1.75s.75.55.75 1.75-.25 1.75-.75 1.75-.75-.55-.75-1.75m150-1c0-.4.35-.75.75-.75s.75.35.75.75-.35.75-.75.75-.75-.35-.75-.75m-354.45-4.85c4.9-5.5 16.55-17.9 16.85-17.9.4 0-.6 1.15-13.1 14.65-6.8 7.3-9 9.25-3.75 3.25M957 417.5c0-.25.35-.5.75-.5s.75.25.75.5c0 .3-.35.5-.75.5s-.75-.2-.75-.5m-405.5-9.6c-7.3-4.85-14.1-8.2-27.25-13.45-7.05-2.85-7.15-2.9-6.15-2.9 1.6-.1 11.2 3.55 18.15 6.9 8.45 4.1 23.25 13.15 21.2 13-.4 0-3.05-1.6-5.95-3.55m68.8-10.45c.5-.95 18.25-19.95 18.6-19.95.1 0-.1.4-.45.9-1.9 2.5-18.8 20.25-18.15 19.05M514 390.7c-1.65-.65-1.65-.7-.25-.4.85.15 1.7.5 2 .75.55.55.4.55-1.75-.35m130.7-19.75c2.1-2.2 3.8-4.2 3.8-4.35 0-1.6-17.35-17.6-27.5-25.45-28.7-22.1-62.7-36.75-99.75-43.15-3.3-.55-6.75-1.15-7.6-1.3-.9-.15-1.65-.45-1.65-.7 0-.8 4.45-.55 9.25.5 2.5.55 5.05 1.1 5.75 1.2 3.5.6 4.8.85 5.5 1.1.4.15 1.45.4 2.25.5 1.6.25 8.75 2.05 15.9 4 5.1 1.4 15.2 5.1 18.7 6.85 1.3.7 4.1 1.9 6.15 2.75 16.85 6.75 32.2 16.25 53.5 33 2.1 1.65 3.55 3 11.7 11 7 6.9 8.3 8.4 8.3 9.4 0 .8-6.9 8.7-7.6 8.7-.3 0 1.2-1.8 3.3-4.05m162.3-13.2c0-.8.3-1.25.75-1.25s.75.45.75 1.25-.3 1.25-.75 1.25-.75-.45-.75-1.25m0-6.25c0-3.65.15-4.5.75-4.5s.75.85.75 4.5-.15 4.5-.75 4.5-.75-.85-.75-4.5m150-5.5c0-2.8.15-3.5.75-3.5s.75.7.75 3.5-.15 3.5-.75 3.5-.75-.7-.75-3.5m-150-.7c0-.4.3-.85.65-.95.35-.15.2-.3-.3-.3-1.15-.05-.85-1.25.3-1.45.65-.15.85.2.85 1.6 0 1.25-.2 1.8-.75 1.8-.4 0-.75-.3-.75-.7m-54.05-2.35c-.4-.25 1.8-.45 5.5-.45 3.4 0 6.1.1 6 .2-.45.45-10.9.65-11.5.25m-9.8-.55c-.4-.55-.6-43-.25-47 .05-.5.45-.9.85-.9.65 0 .75 3 .75 23.95 0 18.7.15 24 .65 24.2.3.15.1.3-.45.3-.6.05-1.3-.25-1.55-.55M957 341.25c0-.4.35-.75.75-.75s.75.35.75.75-.35.75-.75.75-.75-.35-.75-.75m0-5c0-3 .15-3.75.75-3.75s.75.75.75 3.75-.15 3.75-.75 3.75-.75-.75-.75-3.75m0-10c0-.4.35-.75.75-.75s.75.35.75.75-.35.75-.75.75-.75-.35-.75-.75m0-1.75c0-.25.35-.5.75-.5s.75.25.75.5c0 .3-.35.5-.75.5s-.75-.2-.75-.5m0-4.25c0-.4.35-.75.75-.75s.75.35.75.75-.35.75-.75.75-.75-.35-.75-.75m0-1.75c0-.25.35-.5.75-.5s.75.25.75.5c0 .3-.35.5-.75.5s-.75-.2-.75-.5m-214.5-31.75c0-6.9.05-7.25 1-7.25s1 .35 1 6.45c0 5.2-.15 6.65-.8 7.25-.4.45-.85.8-1 .8-.1 0-.2-3.25-.2-7.25M957 277c0-.25.35-.5.75-.5s.75.25.75.5c0 .3-.35.5-.75.5s-.75-.2-.75-.5m-.1-12.55c-.15-9.35.1-11.8 1.1-11.2.3.2.5 4.2.5 10.55 0 8.6-.1 10.2-.75 10.2-.6 0-.75-1.6-.85-9.55"/>
  </g>
  <path d="M507 1023.55c0-.25.8-.55 1.75-.65 1.2-.15 1.75 0 1.75.45 0 .4-.65.65-1.75.65-.95 0-1.75-.2-1.75-.45m7.25-.05c.15-.25 1.2-.5 2.3-.5 1.2 0 1.9.2 1.7.5-.15.3-1.2.5-2.3.5-1.2 0-1.9-.2-1.7-.5M65.65 770.25c0-1.1.1-1.5.2-.85.1.6.1 1.5 0 2-.15.45-.25-.05-.2-1.15m66.05-478.7c-1.45-.75-3.25-1.85-4-2.4-2.15-1.5-10.55-6.5-18.2-10.8-3.7-2.05-13.25-7.6-21.25-12.25-7.95-4.65-15.85-9.25-17.5-10.25-1.95-1.1-3-2.05-3-2.65 0-.65 2.35-2.25 8.25-5.7 14.5-8.45 36.5-21.2 45.25-26.25 8.2-4.75 19.6-11.35 54.25-31.6 8.95-5.25 21.45-12.5 27.75-16.15 6.35-3.65 13.85-8.05 16.75-9.75s9.1-5.3 13.75-8c4.7-2.7 13.55-7.9 19.75-11.5 6.2-3.65 14.2-8.3 17.75-10.35 3.6-2.05 9.9-5.7 14-8.15 4.15-2.4 15.15-8.85 24.5-14.25s21.5-12.5 27-15.7c5.5-3.25 12.8-7.55 16.25-9.55 31.35-18.25 34.5-20.05 72.5-42 8.65-5 17.9-10.35 20.5-11.85 8.85-5.15 26.2-15.25 34.45-20.1 4.5-2.65 8.25-4.8 8.3-4.8.1 0 1.9-1 3.95-2.25C500.95.4 502 0 507 0h4.5v71.65c0 67.65-.05 71.75-.9 72.45-1.15 1-6.55 4.2-22.95 13.6-7.5 4.25-18.2 10.45-23.75 13.7-5.6 3.25-19.95 11.6-31.9 18.55s-23.75 13.85-26.25 15.3c-2.45 1.45-11 6.4-19 11-7.95 4.6-18.3 10.65-23 13.4-4.65 2.75-9.15 5.35-10 5.85-.8.45-5 2.9-9.25 5.35-4.25 2.5-11.55 6.75-16.25 9.4-4.65 2.7-11.4 6.65-15 8.75-3.55 2.1-12.7 7.4-20.25 11.75s-13.9 8.1-14.05 8.3c-.15.25-32.4.5-71.75.55l-71.45.15-.15 6.65c-.1 4.8-.3 6.6-.75 6.6-.35 0-1.75-.65-3.15-1.45" fill="#3b57a2"/>
</svg>
